<svg version="1.1" id="Layer_1" xmlns="http://www.w3.org/2000/svg" xmlns:xlink="http://www.w3.org/1999/xlink" x="0px" y="0px"
	 width="100%" viewBox="0 0 3626 1341" enable-background="new 0 0 3626 1341" xml:space="preserve">
<path fill="#f3f5fb" opacity="1.000000" stroke="none" 
	d="
M1562.000000,1320.104370 
	C1049.478882,1320.104370 537.957764,1320.104370 26.153484,1320.104370 
	C26.153484,889.765259 26.153484,460.337677 26.153484,30.597904 
	C1219.342773,30.597904 2412.048096,30.597904 3605.208496,30.597904 
	C3605.208496,460.257477 3605.208496,889.427429 3605.208496,1318.653442 
	C3605.039551,1318.850586 3604.849854,1319.136230 3604.597656,1319.347046 
	C3604.360596,1319.545044 3604.057373,1319.798462 3603.783203,1319.798462 
	C2923.522217,1319.913208 2243.260986,1320.008667 1562.000000,1320.104370 
M2259.000000,76.107948 
	C1530.713623,76.206055 802.427124,76.304100 74.140732,76.425087 
	C73.882439,76.425125 73.606285,76.752281 73.370850,76.962837 
	C73.123604,77.183937 72.915413,77.448692 72.839722,77.531242 
	C72.839722,475.882416 72.839722,874.070251 72.839722,1272.009521 
	C73.923195,1272.545288 74.501709,1273.082275 75.080238,1273.082397 
	C1235.014893,1273.185303 2394.949463,1273.252808 3554.884033,1273.303711 
	C3556.535645,1273.303711 3558.190186,1273.078979 3559.835938,1272.893921 
	C3560.115234,1272.862427 3560.368164,1272.511475 3560.612549,1272.285767 
	C3560.847900,1272.068237 3561.055908,1271.821533 3561.166992,1271.703613 
	C3561.166992,873.389526 3561.166992,475.191650 3561.166992,76.107948 
	C3127.445801,76.107948 2694.222900,76.107948 2259.000000,76.107948 
z"/>
<path fill="#FEFEFE" opacity="0" stroke="none" 
	d="
M2260.000000,76.107948 
	C2694.222900,76.107948 3127.445801,76.107948 3561.166992,76.107948 
	C3561.166992,475.191650 3561.166992,873.389526 3561.166992,1271.703613 
	C3561.055908,1271.821533 3560.847900,1272.068237 3560.612549,1272.285767 
	C3560.368164,1272.511475 3560.115234,1272.862427 3559.835938,1272.893921 
	C3558.190186,1273.078979 3556.535645,1273.303711 3554.884033,1273.303711 
	C2394.949463,1273.252808 1235.014893,1273.185303 75.080238,1273.082397 
	C74.501709,1273.082275 73.923195,1272.545288 72.839722,1272.009521 
	C72.839722,874.070251 72.839722,475.882416 72.839722,77.531242 
	C72.915413,77.448692 73.123604,77.183937 73.370850,76.962837 
	C73.606285,76.752281 73.882439,76.425125 74.140732,76.425087 
	C802.427124,76.304100 1530.713623,76.206055 2260.000000,76.107948 
M2659.222168,344.063171 
	C2549.086182,397.839355 2496.247314,511.235321 2521.905029,631.760315 
	C2538.153809,708.087646 2582.778320,764.174988 2651.603760,800.037659 
	C2724.761719,838.157837 2802.291016,843.131042 2880.682129,821.067383 
	C3007.982422,785.237732 3088.722656,670.287842 3065.348877,527.581299 
	C3053.149902,453.102173 3012.693115,396.189056 2948.481689,356.585785 
	C2904.051514,329.183075 2855.139893,316.764862 2803.227539,315.333954 
	C2753.569336,313.965149 2705.716553,321.773468 2659.222168,344.063171 
M1575.975220,779.006531 
	C1586.050049,767.511169 1597.270508,756.817749 1605.984497,744.369751 
	C1632.028442,707.165955 1642.970337,664.529846 1643.506470,619.954712 
	C1644.668579,523.323303 1643.978638,426.669525 1643.999390,330.024902 
	C1643.999756,328.496277 1643.404053,326.967499 1643.146484,325.727234 
	C1597.113770,325.727234 1551.633179,325.727234 1505.509521,325.727234 
	C1505.509521,329.983429 1505.509521,333.595947 1505.509521,337.208496 
	C1505.509521,421.856903 1505.570435,506.505432 1505.438721,591.153625 
	C1505.420654,602.793152 1504.966919,614.484070 1503.790771,626.057312 
	C1502.100098,642.691650 1498.136353,658.824463 1490.192261,673.755249 
	C1479.809692,693.268738 1464.153687,706.157166 1442.829834,712.372925 
	C1428.153931,716.650879 1413.189697,717.152710 1398.266724,715.744080 
	C1364.942627,712.598572 1340.872192,696.125427 1328.035278,664.591980 
	C1326.407837,660.594238 1325.057129,656.469666 1323.809326,652.334106 
	C1318.070801,633.315247 1316.817505,613.696228 1316.785034,594.026062 
	C1316.643188,508.378082 1316.723999,422.729767 1316.723877,337.081543 
	C1316.723877,333.231140 1316.723877,329.380737 1316.723877,325.743408 
	C1269.109619,325.743408 1222.967041,325.743408 1176.107178,325.743408 
	C1176.107178,329.994781 1176.107300,333.611145 1176.107300,337.227509 
	C1176.107300,422.542450 1176.020752,507.857605 1176.188477,593.172180 
	C1176.218018,608.141235 1176.791138,623.151672 1178.032715,638.066467 
	C1180.227905,664.437988 1186.296631,689.990295 1197.274536,714.150696 
	C1225.285034,775.797913 1274.219482,811.214111 1339.157471,825.865173 
	C1379.886719,835.054260 1421.105347,835.580078 1462.273193,829.458435 
	C1504.198120,823.224182 1542.607544,808.367188 1575.975220,779.006531 
M2184.112793,440.539978 
	C2210.931152,450.708679 2232.513428,468.054382 2251.205078,490.200409 
	C2281.162598,463.101532 2310.776611,436.313019 2340.765381,409.185760 
	C2338.358887,406.209717 2336.374023,403.599854 2334.230225,401.127380 
	C2308.865234,371.872101 2278.017090,350.210266 2242.062256,336.140839 
	C2180.324707,311.982422 2116.866699,309.081848 2052.643555,323.578369 
	C1995.715454,336.428345 1947.009033,364.248688 1910.071045,409.858307 
	C1851.916138,481.665741 1838.928833,563.735779 1863.815796,650.832520 
	C1888.697388,737.910339 1948.915405,792.562988 2034.262573,819.855591 
	C2078.350098,833.954041 2123.712646,836.017029 2169.581055,830.504089 
	C2211.210938,825.500549 2249.970947,812.597961 2285.256836,789.813965 
	C2306.379395,776.175049 2324.780273,759.491150 2340.805664,739.158691 
	C2310.818604,712.027832 2281.228027,685.255676 2251.391846,658.261597 
	C2249.221924,660.575806 2247.404785,662.442078 2245.665771,664.378723 
	C2207.656250,706.710632 2160.425537,723.691345 2104.502197,713.729980 
	C2057.859863,705.421875 2024.088745,679.263855 2006.306641,634.917175 
	C1990.838989,596.342163 1990.644653,556.650574 2004.614502,517.689636 
	C2019.285156,476.774170 2048.354492,449.958588 2090.285889,437.858032 
	C2121.197021,428.937714 2152.066895,429.634125 2184.112793,440.539978 
M836.051270,441.716797 
	C836.047058,439.297424 836.114075,436.872589 839.403931,436.729340 
	C842.065063,436.613525 844.732727,436.623871 847.397522,436.623505 
	C890.724121,436.617920 934.050720,436.619537 977.377319,436.619507 
	C980.887451,436.619507 984.397583,436.619507 987.786987,436.619507 
	C987.786987,398.734680 987.786987,362.215179 987.786987,325.769531 
	C839.144653,325.769531 691.049438,325.769531 542.811584,325.769531 
	C542.811584,362.954498 542.811584,399.445557 542.811584,436.977173 
	C593.865173,436.977173 644.347229,436.977173 695.725342,436.977173 
	C695.725342,566.167053 695.725342,694.315063 695.725342,822.807739 
	C742.804504,822.807739 788.967285,822.807739 836.047241,822.807739 
	C836.047241,696.055542 836.047241,569.827454 836.051270,441.716797 
M1671.039795,1057.776611 
	C1672.336060,1055.843262 1673.632324,1053.910034 1674.928589,1051.976685 
	C1675.403076,1052.179321 1675.877686,1052.382080 1676.352173,1052.584717 
	C1676.352173,1070.810425 1676.352173,1089.036133 1676.352173,1107.570557 
	C1679.365479,1107.570557 1681.766479,1107.570557 1684.262939,1107.570557 
	C1684.262939,1082.719482 1684.262939,1058.475952 1684.262939,1033.709473 
	C1680.747314,1033.709473 1677.572388,1033.709473 1673.826050,1033.709473 
	C1665.139160,1050.736694 1656.400757,1067.864746 1646.865479,1086.554932 
	C1637.227295,1067.821777 1628.323608,1050.515991 1619.340698,1033.056152 
	C1615.567505,1033.333984 1612.390137,1033.567749 1609.098511,1033.810059 
	C1609.098511,1058.860107 1609.098511,1083.085693 1609.098511,1107.735596 
	C1611.684204,1107.735596 1613.893311,1107.735596 1617.132690,1107.735596 
	C1617.132690,1089.051514 1617.132690,1070.652466 1617.132690,1052.253296 
	C1620.477417,1054.492798 1622.209717,1057.122437 1623.630981,1059.910522 
	C1629.674194,1071.765015 1635.508667,1083.727905 1641.723267,1095.490723 
	C1642.771240,1097.473877 1645.151367,1099.496704 1647.229736,1099.905640 
	C1648.424683,1100.140747 1650.754150,1097.432983 1651.710571,1095.599976 
	C1658.018799,1083.508301 1664.092529,1071.294434 1671.039795,1057.776611 
M2577.850830,1069.000977 
	C2577.850830,1057.429321 2577.850830,1045.857788 2577.850830,1033.803711 
	C2573.633057,1033.803711 2570.177002,1033.803711 2566.807129,1033.803711 
	C2557.862793,1051.292847 2549.173340,1068.282959 2539.787598,1086.635132 
	C2530.131348,1067.761719 2521.407471,1050.710327 2512.717041,1033.724365 
	C2509.016113,1033.724365 2505.827637,1033.724365 2502.386230,1033.724365 
	C2502.386230,1058.687866 2502.386230,1083.135376 2502.386230,1107.580322 
	C2505.039795,1107.580322 2507.177002,1107.580322 2510.322266,1107.580322 
	C2510.322266,1088.434326 2510.322266,1069.823975 2510.322266,1051.213623 
	C2513.331543,1053.847168 2514.950195,1056.647827 2516.407715,1059.530151 
	C2522.404541,1071.390137 2528.248047,1083.329712 2534.416748,1095.098999 
	C2535.496582,1097.159302 2537.863770,1099.864014 2539.641602,1099.867798 
	C2541.416504,1099.871704 2543.793213,1097.172363 2544.879150,1095.115723 
	C2551.704590,1082.189331 2558.215820,1069.097168 2564.909912,1056.100708 
	C2565.831543,1054.311157 2567.192139,1052.747559 2568.349365,1051.079346 
	C2568.896973,1051.269043 2569.444824,1051.458740 2569.992432,1051.648315 
	C2569.992432,1070.417725 2569.992432,1089.187012 2569.992432,1108.313721 
	C2573.066162,1107.999512 2575.233154,1107.778076 2577.850830,1107.510498 
	C2577.850830,1094.872681 2577.850830,1082.936279 2577.850830,1069.000977 
M2804.656494,1045.486816 
	C2804.656494,1066.073364 2804.656494,1086.659912 2804.656494,1107.726074 
	C2807.969238,1107.726074 2810.457275,1107.726074 2813.958496,1107.726074 
	C2813.958496,1089.037354 2813.958496,1070.630371 2813.958496,1049.837402 
	C2817.495361,1054.216187 2819.559814,1056.613037 2821.450928,1059.139282 
	C2832.219482,1073.525146 2843.073730,1087.849609 2853.615479,1102.400146 
	C2857.113770,1107.228638 2860.690918,1110.136841 2866.659668,1107.231812 
	C2866.659668,1082.622925 2866.659668,1058.172974 2866.659668,1033.052002 
	C2863.430176,1033.409058 2860.951904,1033.682983 2858.187988,1033.988525 
	C2858.187988,1043.950317 2858.347900,1053.256348 2858.142090,1062.554443 
	C2857.942383,1071.573975 2859.043701,1080.686401 2857.191406,1090.829956 
	C2854.529053,1087.414062 2852.671875,1085.115112 2850.904053,1082.749268 
	C2839.750488,1067.820190 2828.502686,1052.959229 2817.542480,1037.889404 
	C2814.030762,1033.061035 2810.283691,1031.627930 2804.656494,1034.701904 
	C2804.656494,1037.727539 2804.656494,1040.691650 2804.656494,1045.486816 
M1295.370728,1102.253662 
	C1295.370728,1079.415161 1295.370728,1056.576782 1295.370728,1033.026367 
	C1291.505493,1033.397339 1289.025513,1033.635376 1285.844727,1033.940674 
	C1285.844727,1045.089111 1285.844727,1055.623535 1285.844727,1066.286499 
	C1270.932983,1066.286499 1256.794189,1066.286499 1241.864502,1066.286499 
	C1241.864502,1055.278442 1241.864502,1044.750366 1241.864502,1033.292847 
	C1238.311401,1033.484131 1235.609497,1033.629517 1233.110107,1033.764038 
	C1233.110107,1059.041504 1233.110107,1083.265747 1233.110107,1107.726318 
	C1236.090820,1107.726318 1238.586792,1107.726318 1242.206665,1107.726318 
	C1242.206665,1096.797485 1242.206665,1086.326294 1242.206665,1076.403564 
	C1257.488892,1076.403564 1271.635986,1076.403564 1286.490723,1076.403564 
	C1286.490723,1087.322388 1286.490723,1097.538574 1286.490723,1107.960327 
	C1290.486694,1107.742554 1294.946289,1110.453247 1295.370728,1102.253662 
M1975.331543,1033.434814 
	C1974.760010,1036.209473 1973.728149,1038.978516 1973.694336,1041.759766 
	C1973.525146,1055.737915 1973.648193,1069.719482 1973.582275,1083.699463 
	C1973.572266,1085.800049 1973.106934,1087.898438 1972.677368,1091.438721 
	C1969.856567,1087.907837 1967.961670,1085.664673 1966.206055,1083.317261 
	C1955.047363,1068.396851 1943.786987,1053.549561 1932.860229,1038.460815 
	C1929.464966,1033.772339 1925.881958,1031.808838 1920.554932,1034.122314 
	C1920.554932,1058.912231 1920.554932,1083.360474 1920.554932,1107.609619 
	C1923.390137,1107.609619 1925.571533,1107.609619 1928.340576,1107.609619 
	C1928.468994,1088.497925 1928.278931,1069.865967 1929.282715,1051.152832 
	C1931.879150,1053.098999 1933.555786,1055.119995 1935.127319,1057.219604 
	C1946.490967,1072.401855 1957.998413,1087.480957 1969.083374,1102.864380 
	C1972.475830,1107.572144 1975.956421,1109.625366 1982.084595,1106.962036 
	C1982.084595,1083.973022 1982.034668,1060.715210 1982.134155,1037.458130 
	C1982.150757,1033.587524 1979.999878,1033.121948 1975.331543,1033.434814 
M709.051208,1108.141968 
	C712.635193,1108.320312 712.383606,1105.771240 712.387085,1103.427124 
	C712.396118,1097.262329 712.390137,1091.097534 712.390137,1084.842041 
	C721.738770,1084.842041 729.597168,1084.842041 737.437622,1084.842041 
	C742.544922,1092.614136 747.458984,1100.092285 752.525818,1107.802856 
	C755.413025,1107.802856 758.303528,1107.802856 762.303589,1107.802856 
	C756.452271,1099.176392 751.099121,1091.284302 745.669983,1083.280151 
	C748.124146,1081.782227 750.189270,1080.722900 752.032227,1079.362793 
	C761.151917,1072.632080 763.273010,1063.153809 761.451660,1052.734985 
	C759.654602,1042.455078 752.694397,1036.256714 742.776245,1034.384399 
	C730.073608,1031.986450 717.203369,1033.496948 703.902527,1033.202881 
	C703.902527,1057.778198 703.850220,1081.018188 704.041321,1104.256104 
	C704.051941,1105.556274 706.071533,1106.839844 709.051208,1108.141968 
M900.927307,1101.468628 
	C897.763123,1100.956665 894.605469,1100.056274 891.433594,1100.003174 
	C880.516785,1099.819824 869.595093,1099.932739 858.425354,1099.932739 
	C858.425354,1091.019653 858.425354,1082.949219 858.425354,1074.019897 
	C870.916260,1074.019897 882.768494,1074.019897 894.679626,1074.019897 
	C894.679626,1070.978271 894.679626,1068.843994 894.679626,1065.872314 
	C882.297913,1065.872314 870.437805,1065.872314 858.235718,1065.872314 
	C858.235718,1057.560669 858.235718,1050.089478 858.235718,1041.675781 
	C872.193115,1041.675781 885.714539,1041.675781 899.461426,1041.675781 
	C899.461426,1038.489014 899.461426,1036.248169 899.461426,1033.764771 
	C882.574158,1033.764771 866.064148,1033.764771 849.393555,1033.764771 
	C849.393555,1058.799805 849.393555,1083.246582 849.393555,1108.189697 
	C854.042603,1108.189697 858.021912,1108.189819 862.001221,1108.189575 
	C873.332214,1108.189087 884.664062,1108.105957 895.993591,1108.235352 
	C899.653687,1108.277100 901.819519,1107.316406 900.927307,1101.468628 
M1101.247437,1045.578247 
	C1114.720703,1038.356934 1127.414429,1040.560913 1139.966919,1049.406982 
	C1141.618896,1047.185669 1143.083130,1045.216797 1144.909546,1042.760864 
	C1140.882080,1040.344849 1137.654419,1037.936157 1134.066406,1036.334473 
	C1113.635376,1027.213989 1088.246094,1036.879272 1080.285400,1056.641602 
	C1073.819580,1072.693115 1079.159302,1090.480469 1093.151367,1101.170044 
	C1106.906128,1111.678101 1128.681030,1110.367432 1141.805054,1100.818481 
	C1143.176270,1099.820801 1144.388794,1097.641846 1144.447266,1095.968018 
	C1144.722900,1088.094482 1144.570068,1080.205933 1144.570068,1071.714966 
	C1141.683228,1071.864014 1139.811523,1071.960693 1137.149292,1072.098267 
	C1137.149292,1078.093872 1137.459595,1083.721069 1136.999634,1089.284668 
	C1136.810303,1091.576050 1135.542358,1094.519531 1133.774658,1095.815674 
	C1124.254883,1102.796387 1107.250854,1101.413818 1097.399292,1093.279297 
	C1087.045288,1084.729858 1083.227539,1070.712646 1089.144897,1059.148071 
	C1091.620972,1054.308838 1096.249146,1050.570923 1101.247437,1045.578247 
M2243.829346,1099.962769 
	C2241.584473,1099.398926 2239.249268,1099.067505 2237.109619,1098.233887 
	C2222.911865,1092.702271 2215.440674,1079.405396 2218.175293,1064.748901 
	C2220.557617,1051.980957 2233.034668,1042.069214 2246.950439,1041.427124 
	C2255.982422,1041.010254 2263.715576,1044.260864 2271.289795,1049.663330 
	C2272.929688,1046.992432 2274.193604,1044.933716 2275.420654,1042.935181 
	C2255.855225,1028.443970 2232.664307,1029.931152 2218.043457,1046.129639 
	C2205.340088,1060.203735 2205.583008,1082.258179 2218.593994,1096.127686 
	C2233.527344,1112.046875 2256.810059,1113.047485 2275.175781,1098.735718 
	C2275.175781,1089.731934 2275.175781,1080.904419 2275.175781,1072.153076 
	C2272.603760,1072.153076 2270.727051,1072.153076 2267.959473,1072.153076 
	C2267.959473,1079.781616 2267.959473,1086.986206 2267.959473,1093.744385 
	C2260.680908,1099.028076 2253.431152,1100.750122 2243.829346,1099.962769 
M2072.090088,1082.881958 
	C2068.517822,1090.968140 2064.945557,1099.054199 2060.936523,1108.128784 
	C2064.900391,1107.946899 2067.690674,1107.818970 2070.253174,1107.701416 
	C2073.186279,1101.311157 2075.794189,1095.629028 2078.312012,1090.143799 
	C2092.429932,1090.143799 2105.942139,1090.143799 2119.322266,1090.143799 
	C2122.167969,1096.322510 2124.788086,1102.011108 2127.620605,1108.160889 
	C2130.567383,1107.971069 2133.274902,1107.796631 2136.779297,1107.570923 
	C2125.394287,1082.148804 2114.454346,1057.720215 2103.419434,1033.080200 
	C2099.837891,1033.355469 2096.987793,1033.574585 2094.186768,1033.789795 
	C2086.865234,1050.054688 2079.787842,1065.777100 2072.090088,1082.881958 
M1774.870483,1104.264526 
	C1777.044434,1099.491943 1779.218384,1094.719360 1781.407593,1089.913086 
	C1795.200928,1089.913086 1808.438232,1089.913086 1822.151245,1089.913086 
	C1824.941162,1095.911133 1827.707275,1101.858032 1830.651123,1108.186890 
	C1833.660156,1107.986206 1836.394897,1107.803955 1839.779785,1107.578247 
	C1828.427979,1082.225830 1817.470459,1057.754272 1806.722168,1033.749634 
	C1801.323120,1032.960449 1797.611450,1032.361084 1795.182617,1037.960693 
	C1785.146606,1061.098389 1774.621338,1084.023804 1764.025635,1107.583618 
	C1768.027222,1107.836670 1771.598877,1109.803833 1774.870483,1104.264526 
M2373.869629,1065.624023 
	C2370.869629,1057.959717 2372.649658,1050.218262 2372.918945,1041.519287 
	C2386.959229,1041.519287 2400.453125,1041.519287 2414.363037,1041.519287 
	C2414.212646,1038.307739 2414.108643,1036.089722 2413.995361,1033.677246 
	C2397.285889,1033.677246 2381.046875,1033.677246 2364.437744,1033.677246 
	C2364.437744,1058.538574 2364.437744,1082.975708 2364.437744,1107.655762 
	C2381.802979,1107.655762 2398.637939,1107.655762 2415.568848,1107.655762 
	C2415.568848,1105.029663 2415.568848,1102.891968 2415.568848,1099.630127 
	C2400.994629,1099.630127 2386.876709,1099.630127 2372.983887,1099.630127 
	C2372.983887,1090.652344 2372.983887,1082.812866 2372.983887,1074.228271 
	C2385.439697,1074.228271 2397.315430,1074.228271 2409.973145,1074.228271 
	C2409.739258,1071.051880 2409.566650,1068.709229 2409.363525,1065.949463 
	C2397.652344,1065.949463 2386.687744,1065.949463 2373.869629,1065.624023 
M2668.087646,1106.527710 
	C2668.564453,1106.985962 2669.039551,1107.843018 2669.518066,1107.844971 
	C2686.100586,1107.914185 2702.683350,1107.902588 2719.657959,1107.902588 
	C2719.657959,1105.181519 2719.657959,1103.045288 2719.657959,1099.802246 
	C2705.199951,1099.802246 2691.083984,1099.802246 2676.891113,1099.802246 
	C2676.891113,1090.852051 2676.891113,1083.018311 2676.891113,1074.109863 
	C2689.511719,1074.109863 2701.658936,1074.109863 2714.082520,1074.109863 
	C2713.890381,1070.847290 2713.763184,1068.689941 2713.593018,1065.801758 
	C2700.990967,1065.801758 2689.128174,1065.801758 2676.883789,1065.801758 
	C2676.883789,1057.547974 2676.883789,1050.082153 2676.883789,1041.662842 
	C2690.868164,1041.662842 2704.368896,1041.662842 2718.056885,1041.662842 
	C2718.056885,1038.476685 2718.056885,1036.252319 2718.056885,1033.989258 
	C2701.195312,1033.989258 2684.777832,1033.989258 2667.928955,1033.989258 
	C2667.928955,1058.011597 2667.928955,1081.302734 2668.087646,1106.527710 
M575.908997,1037.833252 
	C575.908997,1061.025391 575.908997,1084.217407 575.908997,1108.064453 
	C579.313782,1107.826904 581.710693,1107.659790 584.672852,1107.453125 
	C584.672852,1096.862061 584.672852,1086.981079 584.672852,1075.934570 
	C596.682251,1075.934570 608.124023,1075.934570 620.010071,1075.934570 
	C619.532166,1072.534180 619.231201,1070.392822 618.805054,1067.360718 
	C607.128235,1067.360718 595.995300,1067.360718 584.824280,1067.360718 
	C584.824280,1058.504639 584.824280,1050.643555 584.824280,1041.849731 
	C597.726196,1041.849731 610.225830,1041.849731 623.007202,1041.849731 
	C623.007202,1038.535400 623.007202,1036.169434 623.007202,1033.265015 
	C608.378784,1033.265015 594.432373,1033.181641 580.490112,1033.384399 
	C578.970154,1033.406616 577.474121,1035.078491 575.908997,1037.833252 
M2971.163330,1061.010986 
	C2971.163330,1076.536011 2971.163330,1092.061157 2971.163330,1108.198364 
	C2974.671387,1107.908203 2977.088379,1107.708374 2980.244385,1107.447388 
	C2980.244385,1085.215332 2980.244385,1063.747559 2980.244385,1041.459961 
	C2988.561523,1041.459961 2996.069336,1041.459961 3003.657227,1041.459961 
	C3003.657227,1038.374634 3003.657227,1036.145874 3003.657227,1033.832275 
	C2984.426025,1033.832275 2965.636719,1033.832275 2946.352783,1033.832275 
	C2946.519531,1036.652100 2946.647949,1038.822144 2946.837158,1042.020386 
	C2955.136475,1042.020386 2962.951660,1042.020386 2971.163330,1042.020386 
	C2971.163330,1048.389771 2971.163330,1053.699097 2971.163330,1061.010986 
M1399.163086,1100.273926 
	C1399.383545,1102.774780 1399.604004,1105.275635 1399.859131,1108.170532 
	C1402.762085,1108.008667 1404.958984,1107.886108 1408.230225,1107.703613 
	C1408.230225,1085.491943 1408.230225,1063.729370 1408.230225,1041.485352 
	C1416.600708,1041.485352 1423.866821,1041.485352 1431.466919,1041.485352 
	C1431.466919,1038.558228 1431.466919,1036.165771 1431.466919,1033.607422 
	C1412.260376,1033.607422 1393.694946,1033.607422 1374.454956,1033.607422 
	C1374.621826,1036.438721 1374.763306,1038.838867 1374.947632,1041.968262 
	C1383.274414,1041.968262 1390.829468,1041.968262 1399.162964,1041.968262 
	C1399.162964,1061.299438 1399.162964,1079.856812 1399.163086,1100.273926 
M985.926086,1037.257080 
	C985.926086,1060.773926 985.926086,1084.290771 985.926086,1107.601074 
	C989.405212,1107.601074 991.574097,1107.601074 993.759521,1107.601074 
	C993.759521,1082.607788 993.759521,1058.136475 993.759521,1032.359253 
	C990.545288,1033.582886 988.301697,1034.436890 985.926086,1037.257080 
z"/>
<path fill="#f3f5fb" opacity="1.000000" stroke="none" 
	d="
M2659.926514,343.803101 
	C2705.716553,321.773468 2753.569336,313.965149 2803.227539,315.333954 
	C2855.139893,316.764862 2904.051514,329.183075 2948.481689,356.585785 
	C3012.693115,396.189056 3053.149902,453.102173 3065.348877,527.581299 
	C3088.722656,670.287842 3007.982422,785.237732 2880.682129,821.067383 
	C2802.291016,843.131042 2724.761719,838.157837 2651.603760,800.037659 
	C2582.778320,764.174988 2538.153809,708.087646 2521.905029,631.760315 
	C2496.247314,511.235321 2549.086182,397.839355 2659.926514,343.803101 
M2820.144531,434.332184 
	C2811.876709,433.510834 2803.609863,431.993256 2795.340820,431.980499 
	C2739.633789,431.894714 2697.989258,455.970490 2672.786865,505.964783 
	C2658.132568,535.035461 2655.581055,566.345520 2659.698730,598.458496 
	C2667.878174,662.246826 2717.696045,715.805176 2791.239502,716.416321 
	C2848.884277,716.895325 2897.723633,683.882935 2917.626709,629.857239 
	C2925.808838,607.647522 2927.572021,584.632263 2926.382568,561.077332 
	C2923.757568,509.079742 2891.309814,449.936646 2820.144531,434.332184 
z"/>
<path fill="#f3f5fb" opacity="1.000000" stroke="none" 
	d="
M1575.444092,779.475098 
	C1542.607544,808.367188 1504.198120,823.224182 1462.273193,829.458435 
	C1421.105347,835.580078 1379.886719,835.054260 1339.157471,825.865173 
	C1274.219482,811.214111 1225.285034,775.797913 1197.274536,714.150696 
	C1186.296631,689.990295 1180.227905,664.437988 1178.032715,638.066467 
	C1176.791138,623.151672 1176.218018,608.141235 1176.188477,593.172180 
	C1176.020752,507.857605 1176.107300,422.542450 1176.107300,337.227509 
	C1176.107300,333.611145 1176.107178,329.994781 1176.107178,325.743408 
	C1222.967041,325.743408 1269.109619,325.743408 1316.723877,325.743408 
	C1316.723877,329.380737 1316.723877,333.231140 1316.723877,337.081543 
	C1316.723999,422.729767 1316.643188,508.378082 1316.785034,594.026062 
	C1316.817505,613.696228 1318.070801,633.315247 1323.809326,652.334106 
	C1325.057129,656.469666 1326.407837,660.594238 1328.035278,664.591980 
	C1340.872192,696.125427 1364.942627,712.598572 1398.266724,715.744080 
	C1413.189697,717.152710 1428.153931,716.650879 1442.829834,712.372925 
	C1464.153687,706.157166 1479.809692,693.268738 1490.192261,673.755249 
	C1498.136353,658.824463 1502.100098,642.691650 1503.790771,626.057312 
	C1504.966919,614.484070 1505.420654,602.793152 1505.438721,591.153625 
	C1505.570435,506.505432 1505.509521,421.856903 1505.509521,337.208496 
	C1505.509521,333.595947 1505.509521,329.983429 1505.509521,325.727234 
	C1551.633179,325.727234 1597.113770,325.727234 1643.146484,325.727234 
	C1643.404053,326.967499 1643.999756,328.496277 1643.999390,330.024902 
	C1643.978638,426.669525 1644.668579,523.323303 1643.506470,619.954712 
	C1642.970337,664.529846 1632.028442,707.165955 1605.984497,744.369751 
	C1597.270508,756.817749 1586.050049,767.511169 1575.444092,779.475098 
z"/>
<path fill="#f3f5fb" opacity="1.000000" stroke="none" 
	d="
M2183.359375,440.311829 
	C2152.066895,429.634125 2121.197021,428.937714 2090.285889,437.858032 
	C2048.354492,449.958588 2019.285156,476.774170 2004.614502,517.689636 
	C1990.644653,556.650574 1990.838989,596.342163 2006.306641,634.917175 
	C2024.088745,679.263855 2057.859863,705.421875 2104.502197,713.729980 
	C2160.425537,723.691345 2207.656250,706.710632 2245.665771,664.378723 
	C2247.404785,662.442078 2249.221924,660.575806 2251.391846,658.261597 
	C2281.228027,685.255676 2310.818604,712.027832 2340.805664,739.158691 
	C2324.780273,759.491150 2306.379395,776.175049 2285.256836,789.813965 
	C2249.970947,812.597961 2211.210938,825.500549 2169.581055,830.504089 
	C2123.712646,836.017029 2078.350098,833.954041 2034.262573,819.855591 
	C1948.915405,792.562988 1888.697388,737.910339 1863.815796,650.832520 
	C1838.928833,563.735779 1851.916138,481.665741 1910.071045,409.858307 
	C1947.009033,364.248688 1995.715454,336.428345 2052.643555,323.578369 
	C2116.866699,309.081848 2180.324707,311.982422 2242.062256,336.140839 
	C2278.017090,350.210266 2308.865234,371.872101 2334.230225,401.127380 
	C2336.374023,403.599854 2338.358887,406.209717 2340.765381,409.185760 
	C2310.776611,436.313019 2281.162598,463.101532 2251.205078,490.200409 
	C2232.513428,468.054382 2210.931152,450.708679 2183.359375,440.311829 
z"/>
<path fill="#f3f5fb" opacity="1.000000" stroke="none" 
	d="
M836.049255,442.658081 
	C836.047241,569.827454 836.047241,696.055542 836.047241,822.807739 
	C788.967285,822.807739 742.804504,822.807739 695.725342,822.807739 
	C695.725342,694.315063 695.725342,566.167053 695.725342,436.977173 
	C644.347229,436.977173 593.865173,436.977173 542.811584,436.977173 
	C542.811584,399.445557 542.811584,362.954498 542.811584,325.769531 
	C691.049438,325.769531 839.144653,325.769531 987.786987,325.769531 
	C987.786987,362.215179 987.786987,398.734680 987.786987,436.619507 
	C984.397583,436.619507 980.887451,436.619507 977.377319,436.619507 
	C934.050720,436.619537 890.724121,436.617920 847.397522,436.623505 
	C844.732727,436.623871 842.065063,436.613525 839.403931,436.729340 
	C836.114075,436.872589 836.047058,439.297424 836.049255,442.658081 
z"/>
<path fill="#f3f5fb" opacity="1.000000" stroke="none" 
	d="
M1670.641357,1058.448486 
	C1664.092529,1071.294434 1658.018799,1083.508301 1651.710571,1095.599976 
	C1650.754150,1097.432983 1648.424683,1100.140747 1647.229736,1099.905640 
	C1645.151367,1099.496704 1642.771240,1097.473877 1641.723267,1095.490723 
	C1635.508667,1083.727905 1629.674194,1071.765015 1623.630981,1059.910522 
	C1622.209717,1057.122437 1620.477417,1054.492798 1617.132690,1052.253296 
	C1617.132690,1070.652466 1617.132690,1089.051514 1617.132690,1107.735596 
	C1613.893311,1107.735596 1611.684204,1107.735596 1609.098511,1107.735596 
	C1609.098511,1083.085693 1609.098511,1058.860107 1609.098511,1033.810059 
	C1612.390137,1033.567749 1615.567505,1033.333984 1619.340698,1033.056152 
	C1628.323608,1050.515991 1637.227295,1067.821777 1646.865479,1086.554932 
	C1656.400757,1067.864746 1665.139160,1050.736694 1673.826050,1033.709473 
	C1677.572388,1033.709473 1680.747314,1033.709473 1684.262939,1033.709473 
	C1684.262939,1058.475952 1684.262939,1082.719482 1684.262939,1107.570557 
	C1681.766479,1107.570557 1679.365479,1107.570557 1676.352173,1107.570557 
	C1676.352173,1089.036133 1676.352173,1070.810425 1676.352173,1052.584717 
	C1675.877686,1052.382080 1675.403076,1052.179321 1674.928589,1051.976685 
	C1673.632324,1053.910034 1672.336060,1055.843262 1670.641357,1058.448486 
z"/>
<path fill="#f3f5fb" opacity="1.000000" stroke="none" 
	d="
M2577.850830,1070.000488 
	C2577.850830,1082.936279 2577.850830,1094.872681 2577.850830,1107.510498 
	C2575.233154,1107.778076 2573.066162,1107.999512 2569.992432,1108.313721 
	C2569.992432,1089.187012 2569.992432,1070.417725 2569.992432,1051.648315 
	C2569.444824,1051.458740 2568.896973,1051.269043 2568.349365,1051.079346 
	C2567.192139,1052.747559 2565.831543,1054.311157 2564.909912,1056.100708 
	C2558.215820,1069.097168 2551.704590,1082.189331 2544.879150,1095.115723 
	C2543.793213,1097.172363 2541.416504,1099.871704 2539.641602,1099.867798 
	C2537.863770,1099.864014 2535.496582,1097.159302 2534.416748,1095.098999 
	C2528.248047,1083.329712 2522.404541,1071.390137 2516.407715,1059.530151 
	C2514.950195,1056.647827 2513.331543,1053.847168 2510.322266,1051.213623 
	C2510.322266,1069.823975 2510.322266,1088.434326 2510.322266,1107.580322 
	C2507.177002,1107.580322 2505.039795,1107.580322 2502.386230,1107.580322 
	C2502.386230,1083.135376 2502.386230,1058.687866 2502.386230,1033.724365 
	C2505.827637,1033.724365 2509.016113,1033.724365 2512.717041,1033.724365 
	C2521.407471,1050.710327 2530.131348,1067.761719 2539.787598,1086.635132 
	C2549.173340,1068.282959 2557.862793,1051.292847 2566.807129,1033.803711 
	C2570.177002,1033.803711 2573.633057,1033.803711 2577.850830,1033.803711 
	C2577.850830,1045.857788 2577.850830,1057.429321 2577.850830,1070.000488 
z"/>
<path fill="#f3f5fb" opacity="1.000000" stroke="none" 
	d="
M2804.656494,1044.571289 
	C2804.656494,1040.691650 2804.656494,1037.727539 2804.656494,1034.701904 
	C2810.283691,1031.627930 2814.030762,1033.061035 2817.542480,1037.889404 
	C2828.502686,1052.959229 2839.750488,1067.820190 2850.904053,1082.749268 
	C2852.671875,1085.115112 2854.529053,1087.414062 2857.191406,1090.829956 
	C2859.043701,1080.686401 2857.942383,1071.573975 2858.142090,1062.554443 
	C2858.347900,1053.256348 2858.187988,1043.950317 2858.187988,1033.988525 
	C2860.951904,1033.682983 2863.430176,1033.409058 2866.659668,1033.052002 
	C2866.659668,1058.172974 2866.659668,1082.622925 2866.659668,1107.231812 
	C2860.690918,1110.136841 2857.113770,1107.228638 2853.615479,1102.400146 
	C2843.073730,1087.849609 2832.219482,1073.525146 2821.450928,1059.139282 
	C2819.559814,1056.613037 2817.495361,1054.216187 2813.958496,1049.837402 
	C2813.958496,1070.630371 2813.958496,1089.037354 2813.958496,1107.726074 
	C2810.457275,1107.726074 2807.969238,1107.726074 2804.656494,1107.726074 
	C2804.656494,1086.659912 2804.656494,1066.073364 2804.656494,1044.571289 
z"/>
<path fill="#f3f5fb" opacity="1.000000" stroke="none" 
	d="
M1295.362793,1103.176270 
	C1294.946289,1110.453247 1290.486694,1107.742554 1286.490723,1107.960327 
	C1286.490723,1097.538574 1286.490723,1087.322388 1286.490723,1076.403564 
	C1271.635986,1076.403564 1257.488892,1076.403564 1242.206665,1076.403564 
	C1242.206665,1086.326294 1242.206665,1096.797485 1242.206665,1107.726318 
	C1238.586792,1107.726318 1236.090820,1107.726318 1233.110107,1107.726318 
	C1233.110107,1083.265747 1233.110107,1059.041504 1233.110107,1033.764038 
	C1235.609497,1033.629517 1238.311401,1033.484131 1241.864502,1033.292847 
	C1241.864502,1044.750366 1241.864502,1055.278442 1241.864502,1066.286499 
	C1256.794189,1066.286499 1270.932983,1066.286499 1285.844727,1066.286499 
	C1285.844727,1055.623535 1285.844727,1045.089111 1285.844727,1033.940674 
	C1289.025513,1033.635376 1291.505493,1033.397339 1295.370728,1033.026367 
	C1295.370728,1056.576782 1295.370728,1079.415161 1295.362793,1103.176270 
z"/>
<path fill="#f3f5fb" opacity="1.000000" stroke="none" 
	d="
M1976.183350,1033.354736 
	C1979.999878,1033.121948 1982.150757,1033.587524 1982.134155,1037.458130 
	C1982.034668,1060.715210 1982.084595,1083.973022 1982.084595,1106.962036 
	C1975.956421,1109.625366 1972.475830,1107.572144 1969.083374,1102.864380 
	C1957.998413,1087.480957 1946.490967,1072.401855 1935.127319,1057.219604 
	C1933.555786,1055.119995 1931.879150,1053.098999 1929.282715,1051.152832 
	C1928.278931,1069.865967 1928.468994,1088.497925 1928.340576,1107.609619 
	C1925.571533,1107.609619 1923.390137,1107.609619 1920.554932,1107.609619 
	C1920.554932,1083.360474 1920.554932,1058.912231 1920.554932,1034.122314 
	C1925.881958,1031.808838 1929.464966,1033.772339 1932.860229,1038.460815 
	C1943.786987,1053.549561 1955.047363,1068.396851 1966.206055,1083.317261 
	C1967.961670,1085.664673 1969.856567,1087.907837 1972.677368,1091.438721 
	C1973.106934,1087.898438 1973.572266,1085.800049 1973.582275,1083.699463 
	C1973.648193,1069.719482 1973.525146,1055.737915 1973.694336,1041.759766 
	C1973.728149,1038.978516 1974.760010,1036.209473 1976.183350,1033.354736 
z"/>
<path fill="#f3f5fb" opacity="1.000000" stroke="none" 
	d="
M708.103638,1108.136475 
	C706.071533,1106.839844 704.051941,1105.556274 704.041321,1104.256104 
	C703.850220,1081.018188 703.902527,1057.778198 703.902527,1033.202881 
	C717.203369,1033.496948 730.073608,1031.986450 742.776245,1034.384399 
	C752.694397,1036.256714 759.654602,1042.455078 761.451660,1052.734985 
	C763.273010,1063.153809 761.151917,1072.632080 752.032227,1079.362793 
	C750.189270,1080.722900 748.124146,1081.782227 745.669983,1083.280151 
	C751.099121,1091.284302 756.452271,1099.176392 762.303589,1107.802856 
	C758.303528,1107.802856 755.413025,1107.802856 752.525818,1107.802856 
	C747.458984,1100.092285 742.544922,1092.614136 737.437622,1084.842041 
	C729.597168,1084.842041 721.738770,1084.842041 712.390137,1084.842041 
	C712.390137,1091.097534 712.396118,1097.262329 712.387085,1103.427124 
	C712.383606,1105.771240 712.635193,1108.320312 708.103638,1108.136475 
M750.552673,1048.660889 
	C746.598145,1046.477173 742.808594,1042.893311 738.654480,1042.404053 
	C730.267700,1041.416260 721.682922,1042.109741 712.825195,1042.109741 
	C712.825195,1053.618896 712.825195,1064.391846 712.825195,1076.063477 
	C720.137207,1076.063477 727.023804,1076.232544 733.899414,1076.029541 
	C750.166870,1075.549316 756.676331,1065.784912 750.552673,1048.660889 
z"/>
<path fill="#f3f5fb" opacity="1.000000" stroke="none" 
	d="
M901.076782,1102.335205 
	C901.819519,1107.316406 899.653687,1108.277100 895.993591,1108.235352 
	C884.664062,1108.105957 873.332214,1108.189087 862.001221,1108.189575 
	C858.021912,1108.189819 854.042603,1108.189697 849.393555,1108.189697 
	C849.393555,1083.246582 849.393555,1058.799805 849.393555,1033.764771 
	C866.064148,1033.764771 882.574158,1033.764771 899.461426,1033.764771 
	C899.461426,1036.248169 899.461426,1038.489014 899.461426,1041.675781 
	C885.714539,1041.675781 872.193115,1041.675781 858.235718,1041.675781 
	C858.235718,1050.089478 858.235718,1057.560669 858.235718,1065.872314 
	C870.437805,1065.872314 882.297913,1065.872314 894.679626,1065.872314 
	C894.679626,1068.843994 894.679626,1070.978271 894.679626,1074.019897 
	C882.768494,1074.019897 870.916260,1074.019897 858.425354,1074.019897 
	C858.425354,1082.949219 858.425354,1091.019653 858.425354,1099.932739 
	C869.595093,1099.932739 880.516785,1099.819824 891.433594,1100.003174 
	C894.605469,1100.056274 897.763123,1100.956665 901.076782,1102.335205 
z"/>
<path fill="#f3f5fb" opacity="1.000000" stroke="none" 
	d="
M1100.573120,1045.955322 
	C1096.249146,1050.570923 1091.620972,1054.308838 1089.144897,1059.148071 
	C1083.227539,1070.712646 1087.045288,1084.729858 1097.399292,1093.279297 
	C1107.250854,1101.413818 1124.254883,1102.796387 1133.774658,1095.815674 
	C1135.542358,1094.519531 1136.810303,1091.576050 1136.999634,1089.284668 
	C1137.459595,1083.721069 1137.149292,1078.093872 1137.149292,1072.098267 
	C1139.811523,1071.960693 1141.683228,1071.864014 1144.570068,1071.714966 
	C1144.570068,1080.205933 1144.722900,1088.094482 1144.447266,1095.968018 
	C1144.388794,1097.641846 1143.176270,1099.820801 1141.805054,1100.818481 
	C1128.681030,1110.367432 1106.906128,1111.678101 1093.151367,1101.170044 
	C1079.159302,1090.480469 1073.819580,1072.693115 1080.285400,1056.641602 
	C1088.246094,1036.879272 1113.635376,1027.213989 1134.066406,1036.334473 
	C1137.654419,1037.936157 1140.882080,1040.344849 1144.909546,1042.760864 
	C1143.083130,1045.216797 1141.618896,1047.185669 1139.966919,1049.406982 
	C1127.414429,1040.560913 1114.720703,1038.356934 1100.573120,1045.955322 
z"/>
<path fill="#f3f5fb" opacity="1.000000" stroke="none" 
	d="
M2244.675293,1100.014893 
	C2253.431152,1100.750122 2260.680908,1099.028076 2267.959473,1093.744385 
	C2267.959473,1086.986206 2267.959473,1079.781616 2267.959473,1072.153076 
	C2270.727051,1072.153076 2272.603760,1072.153076 2275.175781,1072.153076 
	C2275.175781,1080.904419 2275.175781,1089.731934 2275.175781,1098.735718 
	C2256.810059,1113.047485 2233.527344,1112.046875 2218.593994,1096.127686 
	C2205.583008,1082.258179 2205.340088,1060.203735 2218.043457,1046.129639 
	C2232.664307,1029.931152 2255.855225,1028.443970 2275.420654,1042.935181 
	C2274.193604,1044.933716 2272.929688,1046.992432 2271.289795,1049.663330 
	C2263.715576,1044.260864 2255.982422,1041.010254 2246.950439,1041.427124 
	C2233.034668,1042.069214 2220.557617,1051.980957 2218.175293,1064.748901 
	C2215.440674,1079.405396 2222.911865,1092.702271 2237.109619,1098.233887 
	C2239.249268,1099.067505 2241.584473,1099.398926 2244.675293,1100.014893 
z"/>
<path fill="#f3f5fb" opacity="1.000000" stroke="none" 
	d="
M2072.400391,1082.190796 
	C2079.787842,1065.777100 2086.865234,1050.054688 2094.186768,1033.789795 
	C2096.987793,1033.574585 2099.837891,1033.355469 2103.419434,1033.080200 
	C2114.454346,1057.720215 2125.394287,1082.148804 2136.779297,1107.570923 
	C2133.274902,1107.796631 2130.567383,1107.971069 2127.620605,1108.160889 
	C2124.788086,1102.011108 2122.167969,1096.322510 2119.322266,1090.143799 
	C2105.942139,1090.143799 2092.429932,1090.143799 2078.312012,1090.143799 
	C2075.794189,1095.629028 2073.186279,1101.311157 2070.253174,1107.701416 
	C2067.690674,1107.818970 2064.900391,1107.946899 2060.936523,1108.128784 
	C2064.945557,1099.054199 2068.517822,1090.968140 2072.400391,1082.190796 
M2089.967285,1062.977661 
	C2087.545410,1068.631226 2085.123779,1074.284790 2082.520752,1080.361816 
	C2093.917236,1080.361816 2103.986816,1080.361816 2115.209229,1080.361816 
	C2109.649414,1067.823242 2104.560059,1056.346191 2098.864258,1043.500854 
	C2095.715576,1050.302124 2093.107910,1055.934692 2089.967285,1062.977661 
z"/>
<path fill="#f3f5fb" opacity="1.000000" stroke="none" 
	d="
M1774.545898,1104.984497 
	C1771.598877,1109.803833 1768.027222,1107.836670 1764.025635,1107.583618 
	C1774.621338,1084.023804 1785.146606,1061.098389 1795.182617,1037.960693 
	C1797.611450,1032.361084 1801.323120,1032.960449 1806.722168,1033.749634 
	C1817.470459,1057.754272 1828.427979,1082.225830 1839.779785,1107.578247 
	C1836.394897,1107.803955 1833.660156,1107.986206 1830.651123,1108.186890 
	C1827.707275,1101.858032 1824.941162,1095.911133 1822.151245,1089.913086 
	C1808.438232,1089.913086 1795.200928,1089.913086 1781.407593,1089.913086 
	C1779.218384,1094.719360 1777.044434,1099.491943 1774.545898,1104.984497 
M1803.885742,1047.934204 
	C1803.091553,1046.976440 1802.297363,1046.018677 1801.033691,1044.494873 
	C1795.713135,1056.778687 1790.692017,1068.371094 1785.404541,1080.578491 
	C1796.942383,1080.578491 1807.000854,1080.578491 1818.325317,1080.578491 
	C1813.400757,1069.530518 1808.879272,1059.386963 1803.885742,1047.934204 
z"/>
<path fill="#f3f5fb" opacity="1.000000" stroke="none" 
	d="
M2374.796387,1065.786743 
	C2386.687744,1065.949463 2397.652344,1065.949463 2409.363525,1065.949463 
	C2409.566650,1068.709229 2409.739258,1071.051880 2409.973145,1074.228271 
	C2397.315430,1074.228271 2385.439697,1074.228271 2372.983887,1074.228271 
	C2372.983887,1082.812866 2372.983887,1090.652344 2372.983887,1099.630127 
	C2386.876709,1099.630127 2400.994629,1099.630127 2415.568848,1099.630127 
	C2415.568848,1102.891968 2415.568848,1105.029663 2415.568848,1107.655762 
	C2398.637939,1107.655762 2381.802979,1107.655762 2364.437744,1107.655762 
	C2364.437744,1082.975708 2364.437744,1058.538574 2364.437744,1033.677246 
	C2381.046875,1033.677246 2397.285889,1033.677246 2413.995361,1033.677246 
	C2414.108643,1036.089722 2414.212646,1038.307739 2414.363037,1041.519287 
	C2400.453125,1041.519287 2386.959229,1041.519287 2372.918945,1041.519287 
	C2372.649658,1050.218262 2370.869629,1057.959717 2374.796387,1065.786743 
z"/>
<path fill="#f3f5fb" opacity="1.000000" stroke="none" 
	d="
M2668.008301,1105.560791 
	C2667.928955,1081.302734 2667.928955,1058.011597 2667.928955,1033.989258 
	C2684.777832,1033.989258 2701.195312,1033.989258 2718.056885,1033.989258 
	C2718.056885,1036.252319 2718.056885,1038.476685 2718.056885,1041.662842 
	C2704.368896,1041.662842 2690.868164,1041.662842 2676.883789,1041.662842 
	C2676.883789,1050.082153 2676.883789,1057.547974 2676.883789,1065.801758 
	C2689.128174,1065.801758 2700.990967,1065.801758 2713.593018,1065.801758 
	C2713.763184,1068.689941 2713.890381,1070.847290 2714.082520,1074.109863 
	C2701.658936,1074.109863 2689.511719,1074.109863 2676.891113,1074.109863 
	C2676.891113,1083.018311 2676.891113,1090.852051 2676.891113,1099.802246 
	C2691.083984,1099.802246 2705.199951,1099.802246 2719.657959,1099.802246 
	C2719.657959,1103.045288 2719.657959,1105.181519 2719.657959,1107.902588 
	C2702.683350,1107.902588 2686.100586,1107.914185 2669.518066,1107.844971 
	C2669.039551,1107.843018 2668.564453,1106.985962 2668.008301,1105.560791 
z"/>
<path fill="#f3f5fb" opacity="1.000000" stroke="none" 
	d="
M575.937988,1036.909180 
	C577.474121,1035.078491 578.970154,1033.406616 580.490112,1033.384399 
	C594.432373,1033.181641 608.378784,1033.265015 623.007202,1033.265015 
	C623.007202,1036.169434 623.007202,1038.535400 623.007202,1041.849731 
	C610.225830,1041.849731 597.726196,1041.849731 584.824280,1041.849731 
	C584.824280,1050.643555 584.824280,1058.504639 584.824280,1067.360718 
	C595.995300,1067.360718 607.128235,1067.360718 618.805054,1067.360718 
	C619.231201,1070.392822 619.532166,1072.534180 620.010071,1075.934570 
	C608.124023,1075.934570 596.682251,1075.934570 584.672852,1075.934570 
	C584.672852,1086.981079 584.672852,1096.862061 584.672852,1107.453125 
	C581.710693,1107.659790 579.313782,1107.826904 575.908997,1108.064453 
	C575.908997,1084.217407 575.908997,1061.025391 575.937988,1036.909180 
z"/>
<path fill="#f3f5fb" opacity="1.000000" stroke="none" 
	d="
M2971.163330,1060.009766 
	C2971.163330,1053.699097 2971.163330,1048.389771 2971.163330,1042.020386 
	C2962.951660,1042.020386 2955.136475,1042.020386 2946.837158,1042.020386 
	C2946.647949,1038.822144 2946.519531,1036.652100 2946.352783,1033.832275 
	C2965.636719,1033.832275 2984.426025,1033.832275 3003.657227,1033.832275 
	C3003.657227,1036.145874 3003.657227,1038.374634 3003.657227,1041.459961 
	C2996.069336,1041.459961 2988.561523,1041.459961 2980.244385,1041.459961 
	C2980.244385,1063.747559 2980.244385,1085.215332 2980.244385,1107.447388 
	C2977.088379,1107.708374 2974.671387,1107.908203 2971.163330,1108.198364 
	C2971.163330,1092.061157 2971.163330,1076.536011 2971.163330,1060.009766 
z"/>
<path fill="#f3f5fb" opacity="1.000000" stroke="none" 
	d="
M1399.163086,1099.343994 
	C1399.162964,1079.856812 1399.162964,1061.299438 1399.162964,1041.968262 
	C1390.829468,1041.968262 1383.274414,1041.968262 1374.947632,1041.968262 
	C1374.763306,1038.838867 1374.621826,1036.438721 1374.454956,1033.607422 
	C1393.694946,1033.607422 1412.260376,1033.607422 1431.466919,1033.607422 
	C1431.466919,1036.165771 1431.466919,1038.558228 1431.466919,1041.485352 
	C1423.866821,1041.485352 1416.600708,1041.485352 1408.230225,1041.485352 
	C1408.230225,1063.729370 1408.230225,1085.491943 1408.230225,1107.703613 
	C1404.958984,1107.886108 1402.762085,1108.008667 1399.859131,1108.170532 
	C1399.604004,1105.275635 1399.383545,1102.774780 1399.163086,1099.343994 
z"/>
<path fill="#f3f5fb" opacity="1.000000" stroke="none" 
	d="
M985.992065,1036.273926 
	C988.301697,1034.436890 990.545288,1033.582886 993.759521,1032.359253 
	C993.759521,1058.136475 993.759521,1082.607788 993.759521,1107.601074 
	C991.574097,1107.601074 989.405212,1107.601074 985.926086,1107.601074 
	C985.926086,1084.290771 985.926086,1060.773926 985.992065,1036.273926 
z"/>
<path fill="#FEFEFE" opacity="0" stroke="none" 
	d="
M2820.975098,434.520691 
	C2891.309814,449.936646 2923.757568,509.079742 2926.382568,561.077332 
	C2927.572021,584.632263 2925.808838,607.647522 2917.626709,629.857239 
	C2897.723633,683.882935 2848.884277,716.895325 2791.239502,716.416321 
	C2717.696045,715.805176 2667.878174,662.246826 2659.698730,598.458496 
	C2655.581055,566.345520 2658.132568,535.035461 2672.786865,505.964783 
	C2697.989258,455.970490 2739.633789,431.894714 2795.340820,431.980499 
	C2803.609863,431.993256 2811.876709,433.510834 2820.975098,434.520691 
z"/>
<path fill="#F8F9FA" opacity="0" stroke="none" 
	d="
M751.001831,1049.299805 
	C756.676331,1065.784912 750.166870,1075.549316 733.899414,1076.029541 
	C727.023804,1076.232544 720.137207,1076.063477 712.825195,1076.063477 
	C712.825195,1064.391846 712.825195,1053.618896 712.825195,1042.109741 
	C721.682922,1042.109741 730.267700,1041.416260 738.654480,1042.404053 
	C742.808594,1042.893311 746.598145,1046.477173 751.001831,1049.299805 
z"/>
<path fill="#EBEAEC" opacity="0" stroke="none" 
	d="
M2090.233887,1062.272461 
	C2093.107910,1055.934692 2095.715576,1050.302124 2098.864258,1043.500854 
	C2104.560059,1056.346191 2109.649414,1067.823242 2115.209229,1080.361816 
	C2103.986816,1080.361816 2093.917236,1080.361816 2082.520752,1080.361816 
	C2085.123779,1074.284790 2087.545410,1068.631226 2090.233887,1062.272461 
z"/>
<path fill="#EBEAEC" opacity="0" stroke="none" 
	d="
M1804.121826,1048.588867 
	C1808.879272,1059.386963 1813.400757,1069.530518 1818.325317,1080.578491 
	C1807.000854,1080.578491 1796.942383,1080.578491 1785.404541,1080.578491 
	C1790.692017,1068.371094 1795.713135,1056.778687 1801.033691,1044.494873 
	C1802.297363,1046.018677 1803.091553,1046.976440 1804.121826,1048.588867 
z"/>
</svg>