<svg width="420" height="320" viewBox="0 0 420 320" fill="none" xmlns="http://www.w3.org/2000/svg">
  <rect width="420" height="320" rx="28" fill="#F7F9FD" opacity="0"/>
  <path d="M60 210H360" stroke="#D0DEEE" stroke-width="6" stroke-linecap="round" stroke-dasharray="14 16"/>
  <rect x="86" y="148" width="112" height="62" rx="14" fill="#0C233F"/>
  <rect x="90" y="166" width="70" height="24" rx="6" fill="#62BDA5"/>
  <path d="M198 188H86" stroke="white" stroke-width="4" stroke-linecap="round"/>
  <circle cx="120" cy="212" r="16" fill="#122B52"/>
  <circle cx="120" cy="212" r="9" fill="#62BDA5"/>
  <circle cx="180" cy="212" r="16" fill="#122B52"/>
  <circle cx="180" cy="212" r="9" fill="#62BDA5"/>
  <rect x="212" y="134" width="122" height="76" rx="18" fill="#122B52"/>
  <rect x="226" y="156" width="72" height="26" rx="6" fill="#38A2CA"/>
  <path d="M334 192H212" stroke="#F7F9FD" stroke-width="4" stroke-linecap="round"/>
  <circle cx="250" cy="212" r="16" fill="#0C233F"/>
  <circle cx="250" cy="212" r="9" fill="#62BDA5"/>
  <circle cx="314" cy="212" r="16" fill="#0C233F"/>
  <circle cx="314" cy="212" r="9" fill="#62BDA5"/>
  <path d="M148 120H272" stroke="#9CB8D8" stroke-width="6" stroke-linecap="round"/>
  <path d="M128 120L160 90H260L292 120" stroke="#0C233F" stroke-width="8" stroke-linecap="round" stroke-linejoin="round"/>
  <rect x="173" y="88" width="76" height="16" rx="8" fill="#62BDA5"/>
  <path d="M102 238H318" stroke="#9CB8D8" stroke-width="4" stroke-linecap="round" stroke-dasharray="12 12"/>
</svg>
