<svg version="1.1" id="Layer_1" xmlns="http://www.w3.org/2000/svg" xmlns:xlink="http://www.w3.org/1999/xlink" x="0px" y="0px"
	 width="100%" viewBox="0 0 1024 1024" enable-background="new 0 0 1024 1024" xml:space="preserve">
<path fill="#FFFFFF" opacity="0" stroke="none" 
	d="
M1.000000,379.000000 
	C1.000000,252.666687 1.000000,126.833366 1.000000,1.000034 
	C342.333282,1.000023 683.666565,1.000023 1025.000000,1.000011 
	C1025.000000,342.333252 1025.000000,683.666504 1025.000000,1024.999756 
	C683.666809,1024.999878 342.333618,1024.999878 1.000206,1025.000000 
	C1.000000,809.833313 1.000000,594.666687 1.000000,379.000000 
M136.595734,135.624527 
	C136.595734,135.624527 136.454803,135.537308 136.091263,135.718811 
	C135.862991,135.875244 135.682709,136.074997 135.444168,136.436829 
	C135.444168,136.436829 135.314957,136.530090 134.905685,136.806763 
	C134.452438,137.278381 133.999176,137.750000 133.283066,138.392532 
	C133.283066,138.392532 133.159851,138.680862 132.957977,138.803192 
	C132.957977,138.803192 132.657074,139.163361 132.285004,139.323563 
	C132.285004,139.323563 132.136078,139.700302 131.950150,139.822784 
	C131.950150,139.822784 131.662003,140.159439 131.284332,140.319977 
	C131.284332,140.319977 131.134811,140.702148 130.950287,140.824097 
	C130.950287,140.824097 130.662994,141.157578 130.282578,141.318329 
	C130.282578,141.318329 130.132462,141.703064 129.951584,141.825439 
	C129.951584,141.825439 129.667282,142.154327 129.293747,142.314194 
	C129.293747,142.314194 129.144363,142.692032 128.903168,142.824051 
	C128.756943,142.942657 128.651337,143.090302 128.423553,143.390503 
	C128.423553,143.390503 128.283920,143.539703 127.813477,143.944962 
	C126.475403,145.611877 125.137329,147.278793 123.346886,149.054382 
	C123.065506,149.250412 122.936447,149.519485 122.372772,150.147812 
	C121.524536,151.398102 120.676300,152.648392 119.919685,153.923660 
	C119.919685,153.923660 119.893578,153.832352 119.299858,154.112427 
	C118.470505,155.382492 117.641144,156.652557 116.915878,157.934326 
	C116.915878,157.934326 116.894196,157.831848 116.316597,158.118134 
	C115.799530,159.041077 115.282463,159.964035 114.879539,160.909683 
	C114.879539,160.909683 114.855370,160.795837 114.259308,161.109009 
	C113.121216,163.038132 111.983116,164.967255 110.950584,166.942123 
	C110.950584,166.942123 110.890694,166.843903 110.290321,167.178314 
	C109.133560,169.423279 107.976791,171.668228 106.911942,173.923767 
	C106.911942,173.923767 106.886070,173.834930 106.287834,174.191772 
	C105.979111,174.773682 105.660194,175.350449 105.363152,175.938263 
	C97.995857,190.517197 92.214951,205.620575 89.916695,222.778229 
	C89.331268,228.195602 88.745842,233.612991 88.022964,239.955017 
	C88.006447,389.665283 87.979713,539.375549 87.981636,689.085815 
	C87.982040,720.721680 88.087288,752.357483 87.993996,784.884827 
	C89.712265,795.582886 91.430534,806.280884 93.064400,817.740967 
	C99.713097,840.743225 110.273125,861.618713 126.385674,879.536194 
	C139.212692,893.800232 153.968613,905.414978 172.024567,913.771179 
	C172.494202,913.939331 172.979645,914.073120 173.431168,914.280640 
	C188.250366,921.090820 203.688736,925.598877 220.830948,927.025452 
	C225.972458,927.349304 231.113876,927.954773 236.255478,927.956177 
	C420.127625,928.006165 603.999878,928.051086 787.871826,927.866211 
	C798.245667,927.855774 808.617615,925.892822 819.796631,924.964294 
	C834.373901,921.809875 848.349976,917.022766 861.490906,909.566711 
	C861.490906,909.566711 861.625793,909.514526 862.190186,909.178711 
	C864.258362,907.974915 866.326599,906.771118 868.426086,905.478943 
	C868.426086,905.478943 868.506104,905.527893 869.005676,905.258118 
	C869.407043,904.887939 869.808472,904.517761 870.096924,904.121704 
	C870.096924,904.121704 870.119690,904.235291 870.738770,904.063538 
	C871.555786,903.419861 872.372742,902.776123 873.090942,902.107849 
	C873.090942,902.107849 873.110535,902.207703 873.628357,902.065186 
	C873.892822,901.841125 874.157288,901.617065 874.244934,901.320923 
	C874.244934,901.320923 874.369934,901.465454 874.911377,901.244873 
	C875.319031,900.854797 875.726746,900.464783 876.051575,900.054871 
	C876.051575,900.054871 876.055054,900.140015 876.618530,899.984131 
	C877.229858,899.514893 877.841187,899.045654 878.527954,898.463867 
	C878.527954,898.463867 878.635986,898.382141 878.906433,898.299072 
	C878.906433,898.299072 878.999084,898.031616 879.656189,897.861328 
	C886.820068,890.927063 893.983887,883.992798 901.734924,876.809509 
	C902.563660,875.590271 903.392456,874.371094 904.076172,873.052429 
	C904.076172,873.052429 904.181458,873.193237 904.786804,872.900330 
	C906.591919,870.310242 908.397095,867.720154 910.075806,865.053894 
	C910.075806,865.053894 910.158386,865.176208 910.740601,864.917053 
	C911.231445,863.990479 911.722290,863.063904 912.086365,862.061890 
	C912.086365,862.061890 912.166992,862.185547 912.710999,861.958923 
	C913.275757,860.953918 913.840576,859.948975 914.786499,858.721008 
	C914.786499,858.721008 914.897095,858.293579 915.256775,857.860291 
	C915.973816,856.555237 916.690918,855.250244 917.787964,853.720581 
	C917.787964,853.720581 917.895752,853.292480 918.257751,852.784851 
	C930.606384,830.867188 937.724731,807.288513 937.756470,782.188721 
	C937.984314,602.073914 937.936523,421.958679 937.797729,241.843689 
	C937.784729,225.017517 934.528442,208.602310 927.878052,192.268005 
	C927.602783,191.670090 927.304626,191.081497 927.055420,190.472885 
	C917.510437,167.164734 903.587769,147.025696 883.696655,130.449570 
	C882.842651,129.895660 881.988708,129.341736 881.109192,128.885101 
	C881.109192,128.885101 881.206726,128.860641 880.911804,128.276398 
	C879.633240,127.471268 878.354614,126.666130 877.055176,125.949196 
	C877.055176,125.949196 877.140320,125.918190 876.857239,125.340942 
	C875.929077,124.830452 875.000977,124.319962 874.061646,123.917915 
	C874.061646,123.917915 874.168640,123.896965 873.846924,123.286339 
	C872.307251,122.332443 870.843750,121.216141 869.215210,120.451630 
	C860.175659,116.207970 851.096069,112.049767 842.028625,107.952034 
	C842.028625,107.952034 842.116943,107.936157 841.792358,107.307785 
	C840.872803,107.154762 839.953308,107.001740 839.028992,106.944000 
	C839.028992,106.944000 839.123352,106.929657 838.781860,106.270058 
	C823.693665,100.635803 807.986328,98.569885 791.082214,98.000816 
	C626.702942,97.975075 462.323608,97.939903 297.944305,97.934532 
	C275.298767,97.933792 252.653244,98.080849 229.156006,98.000580 
	C202.765320,99.394302 178.150925,106.486580 155.907639,120.888214 
	C155.907639,120.888214 155.886383,120.787338 155.221176,120.959244 
	C153.410858,122.259315 151.600540,123.559380 149.909256,124.886879 
	C149.909256,124.886879 149.891251,124.766060 149.361618,124.917839 
	C149.102386,125.160683 148.843140,125.403526 148.746643,125.720299 
	C148.746643,125.720299 148.641068,125.576050 148.234711,125.685112 
	C147.979340,125.815018 147.769196,125.997116 147.411270,126.347786 
	C147.411270,126.347786 147.253967,126.509209 146.827972,126.792603 
	C146.482391,127.142136 146.136810,127.491669 145.889221,127.870140 
	C145.889221,127.870140 145.861862,127.771721 145.337936,127.925705 
	C145.090439,128.176468 144.842926,128.427231 144.751511,128.723846 
	C144.751511,128.723846 144.682007,128.576736 144.102707,128.816071 
	C143.356842,129.517914 142.610977,130.219757 141.947418,130.939590 
	C141.947418,130.939590 141.940186,130.855652 141.416489,131.029053 
	C141.213501,131.324020 141.010513,131.618988 140.911407,131.929138 
	C140.911407,131.929138 140.891098,131.826126 140.299042,132.036301 
	C139.403427,132.896759 138.507812,133.757217 137.875458,134.905441 
	C137.875458,134.905441 137.648712,134.588135 137.185669,134.761856 
	C136.894104,134.936081 136.671707,135.174759 136.595734,135.624527 
z"/>
<path fill="#011836" opacity="1.000000" stroke="none" 
	d="
M901.147705,877.058472 
	C893.983887,883.992798 886.820068,890.927063 879.217712,897.786743 
	C878.653381,897.698914 878.527588,897.685608 878.401733,897.672302 
	C878.479797,897.908936 878.557922,898.145508 878.635986,898.382141 
	C878.635986,898.382141 878.527954,898.463867 878.170532,898.429688 
	C877.227051,898.977051 876.640991,899.558472 876.055054,900.140015 
	C876.055054,900.140015 876.051575,900.054871 875.757812,900.078796 
	C875.099365,900.556946 874.734619,901.011169 874.369934,901.465454 
	C874.369934,901.465454 874.244934,901.320923 874.039429,901.340576 
	C873.592773,901.642700 873.351685,901.925232 873.110596,902.207764 
	C873.110535,902.207703 873.090942,902.107849 872.790039,902.099426 
	C871.699341,902.805725 870.909485,903.520447 870.119629,904.235229 
	C870.119690,904.235291 870.096924,904.121704 869.808838,904.120422 
	C869.182495,904.588745 868.844299,905.058350 868.506104,905.527954 
	C868.506104,905.527893 868.426086,905.478943 868.047729,905.374756 
	C865.654907,906.685242 863.640320,908.099854 861.625732,909.514526 
	C861.625793,909.514526 861.490906,909.566711 861.076782,909.437256 
	C856.884338,910.885071 853.178406,912.673401 849.313477,913.998413 
	C839.246521,917.449829 829.109863,920.698059 818.565125,924.020386 
	C809.097595,925.009705 800.068298,926.844604 791.033752,926.870850 
	C712.414978,927.099243 633.795044,927.122253 555.175903,926.975647 
	C443.450745,926.767334 331.725952,926.363403 219.727600,925.745239 
	C205.208374,923.907776 191.497345,920.292725 178.208969,914.960876 
	C176.109573,914.118530 173.817764,913.755676 171.614914,913.171143 
	C153.968613,905.414978 139.212692,893.800232 126.385674,879.536194 
	C110.273125,861.618713 99.713097,840.743225 93.364365,817.094971 
	C93.624741,815.330261 93.697388,814.194214 93.527962,813.095459 
	C92.031326,803.389587 90.491722,793.690247 88.975281,783.521179 
	C88.985191,603.469604 88.986992,423.885895 88.949989,244.302170 
	C88.949623,242.544861 88.434975,240.787628 88.160416,239.030365 
	C88.745842,233.612991 89.331268,228.195602 90.403137,222.282623 
	C91.213585,221.433487 91.718605,221.131088 91.835045,220.718903 
	C94.518097,211.221191 96.940742,201.643341 99.884399,192.228165 
	C101.838417,185.978317 104.526550,179.957993 106.886070,173.834930 
	C106.886070,173.834930 106.911942,173.923767 107.207260,173.821930 
	C108.631950,171.428040 109.761322,169.135971 110.890694,166.843903 
	C110.890694,166.843903 110.950584,166.942123 111.254868,166.913422 
	C112.657883,164.855072 113.756622,162.825455 114.855362,160.795837 
	C114.855370,160.795837 114.879539,160.909683 115.160286,160.817001 
	C115.925415,159.760162 116.409798,158.796005 116.894196,157.831848 
	C116.894196,157.831848 116.915878,157.934326 117.199936,157.836273 
	C118.287186,156.436249 119.090378,155.134293 119.893570,153.832352 
	C119.893578,153.832352 119.919685,153.923660 120.231735,153.907990 
	C121.349091,152.548752 122.154388,151.205185 122.959694,149.861618 
	C122.936447,149.519485 123.065506,149.250412 123.934471,148.995087 
	C125.776016,147.137085 127.029968,145.338394 128.283920,143.539703 
	C128.283920,143.539703 128.423553,143.390503 128.736893,143.435333 
	C129.129288,143.400940 129.276352,143.319534 129.273880,143.242966 
	C129.267883,143.058105 129.192032,142.875534 129.144363,142.692032 
	C129.144363,142.692032 129.293747,142.314194 129.678406,142.372803 
	C130.063080,142.431427 130.401932,142.097458 130.401932,142.097458 
	C130.401932,142.097458 130.132462,141.703064 130.132462,141.703064 
	C130.132462,141.703064 130.282578,141.318329 130.672272,141.375641 
	C131.061981,141.432953 131.403030,141.099121 131.403030,141.099121 
	C131.403030,141.099121 131.134811,140.702148 131.134811,140.702148 
	C131.134811,140.702148 131.284332,140.319977 131.673477,140.376892 
	C132.062622,140.433792 132.403656,140.098724 132.403656,140.098724 
	C132.403656,140.098724 132.136078,139.700302 132.136078,139.700302 
	C132.136078,139.700302 132.285004,139.323563 132.676270,139.379074 
	C133.067520,139.434586 133.414581,139.095749 133.414581,139.095749 
	C133.414581,139.095749 133.159851,138.680862 133.159851,138.680862 
	C133.159851,138.680862 133.283066,138.392532 133.733475,138.441727 
	C134.560913,137.837311 134.937943,137.183701 135.314972,136.530090 
	C135.314957,136.530090 135.444168,136.436829 135.773270,136.465881 
	C136.219849,136.175720 136.337326,135.856506 136.454803,135.537308 
	C136.454803,135.537308 136.595734,135.624527 136.856689,135.594589 
	C137.294662,135.239136 137.471680,134.913635 137.648712,134.588135 
	C137.648712,134.588135 137.875458,134.905441 138.111755,134.847336 
	C139.195740,133.801529 140.043427,132.813828 140.891098,131.826126 
	C140.891098,131.826126 140.911407,131.929138 141.120209,131.832855 
	C141.532715,131.442917 141.736450,131.149277 141.940186,130.855652 
	C141.940186,130.855652 141.947418,130.939590 142.262177,130.929489 
	C143.278625,130.138504 143.980316,129.357620 144.682007,128.576736 
	C144.682007,128.576736 144.751511,128.723846 144.967789,128.691315 
	C145.410004,128.363098 145.635925,128.067413 145.861862,127.771721 
	C145.861862,127.771721 145.889221,127.870140 146.172760,127.869919 
	C146.722183,127.416199 146.988083,126.962700 147.253967,126.509209 
	C147.253967,126.509209 147.411270,126.347786 147.767090,126.409195 
	C148.295624,126.172417 148.468353,125.874237 148.641068,125.576050 
	C148.641068,125.576050 148.746643,125.720299 148.963287,125.684189 
	C149.417053,125.354073 149.654160,125.060074 149.891266,124.766068 
	C149.891251,124.766060 149.909256,124.886879 150.213608,124.894913 
	C152.307434,123.531075 154.096909,122.159210 155.886383,120.787338 
	C155.886383,120.787338 155.907639,120.888214 156.231781,120.890739 
	C159.108185,119.725098 161.605988,118.414665 164.222031,117.413017 
	C176.542984,112.695457 188.684601,107.340111 201.308655,103.639999 
	C210.538223,100.934799 220.417557,100.446442 230.467834,98.980377 
	C417.951324,98.986366 604.974243,98.981918 792.378906,99.146576 
	C794.372375,99.538864 795.981689,99.782326 797.596375,99.981758 
	C804.896423,100.883400 812.237122,101.536217 819.487488,102.736031 
	C826.083435,103.827560 832.581909,105.508522 839.123352,106.929657 
	C839.123352,106.929657 839.028992,106.944000 839.209351,107.202370 
	C840.298767,107.619209 841.207886,107.777679 842.116943,107.936157 
	C842.116943,107.936157 842.028625,107.952034 842.198242,108.221115 
	C848.720886,111.565033 855.074768,114.638359 861.426880,117.715248 
	C865.675415,119.773193 869.921448,121.836227 874.168640,123.896973 
	C874.168640,123.896965 874.061646,123.917915 874.161133,124.195259 
	C875.220520,124.954460 876.180420,125.436325 877.140320,125.918182 
	C877.140320,125.918190 877.055176,125.949196 877.078613,126.263702 
	C878.470337,127.339020 879.838501,128.099823 881.206726,128.860641 
	C881.206726,128.860641 881.109192,128.885101 881.103149,129.149536 
	C882.065979,129.937042 883.034851,130.460098 884.003723,130.983139 
	C903.587769,147.025696 917.510437,167.164734 927.055420,190.472885 
	C927.304626,191.081497 927.602783,191.670090 927.656128,192.881989 
	C927.673157,194.739532 927.762634,196.035019 928.174011,197.218628 
	C932.436035,209.481506 935.931824,222.029312 935.941956,235.022034 
	C936.083191,416.186523 935.993408,597.351135 936.088074,778.515747 
	C936.101074,803.436401 930.455322,826.782410 918.753906,848.739990 
	C918.060791,850.040588 918.163391,851.765137 917.895752,853.292480 
	C917.895752,853.292480 917.787964,853.720581 917.300842,853.711670 
	C916.174866,855.233032 915.536011,856.763306 914.897095,858.293579 
	C914.897095,858.293579 914.786499,858.721008 914.295654,858.712158 
	C913.258911,859.864014 912.712952,861.024780 912.166992,862.185547 
	C912.166992,862.185547 912.086365,862.061890 911.825378,862.200989 
	C911.095764,863.285461 910.627136,864.230835 910.158447,865.176270 
	C910.158386,865.176208 910.075806,865.053894 909.811768,865.195679 
	C907.758972,867.956055 905.970215,870.574646 904.181519,873.193237 
	C904.181458,873.193237 904.076172,873.052429 903.841919,873.181396 
	C902.787720,874.559814 901.967712,875.809143 901.147705,877.058472 
M868.076904,861.290405 
	C868.076904,861.290405 868.285461,861.071838 868.285461,861.071838 
	C868.285461,861.071838 868.005188,860.949707 868.255371,860.246216 
	C868.490845,860.165894 868.726379,860.085571 869.076111,860.290588 
	C869.076111,860.290588 869.285095,860.072510 869.285095,860.072510 
	C869.285095,860.072510 869.004883,859.950317 869.241760,859.254028 
	C869.474304,859.176575 869.706909,859.099182 870.063782,859.300354 
	C870.063782,859.300354 870.274231,859.087769 870.274231,859.087769 
	C870.274231,859.087769 869.997070,858.967407 870.228333,858.239197 
	C870.471252,858.162537 870.714172,858.085938 871.079224,858.288086 
	C871.079224,858.288086 871.286804,858.072449 871.286804,858.072449 
	C871.286804,858.072449 871.015137,857.939026 871.116455,857.354492 
	C871.290466,857.260437 871.464417,857.166443 872.179077,857.317566 
	C872.408569,856.825012 872.638000,856.332458 872.969116,855.968506 
	C872.969116,855.968506 872.836670,855.872070 873.590515,855.873047 
	C874.222717,854.778687 874.854980,853.684387 875.579956,852.608765 
	C875.579956,852.608765 875.555237,852.517456 876.251648,852.592590 
	C876.795288,851.680237 877.338928,850.767944 877.972961,849.972412 
	C877.972961,849.972412 877.851501,849.888306 878.466125,849.892700 
	C878.969543,848.924011 879.473022,847.955322 880.155823,846.324463 
	C888.565918,835.006165 894.374268,822.424194 898.994202,808.780457 
	C899.669312,807.164124 900.650208,805.604919 900.964294,803.921265 
	C902.075134,797.967407 902.957886,791.971008 903.962463,785.055298 
	C903.962463,602.767822 903.962463,420.480408 903.962463,238.192963 
	C903.659058,238.193130 903.355713,238.193298 903.052307,238.193451 
	C903.052307,420.798309 903.052307,603.403198 902.614868,786.020203 
	C902.614868,786.020203 902.177490,786.032837 902.045593,785.099426 
	C902.082153,783.934265 902.150757,782.769104 902.150757,781.603943 
	C902.146545,654.855713 902.133240,528.107483 902.130066,401.359283 
	C902.128662,346.234161 902.147095,291.109039 902.689819,235.401917 
	C902.701111,223.196014 899.292297,211.853439 893.988281,200.233002 
	C891.231201,195.557175 888.474121,190.881363 885.897705,186.063324 
	C885.897705,186.063324 885.755859,186.244293 885.892212,185.444611 
	C885.786987,180.635757 883.034241,177.831558 878.960205,176.038971 
	C878.960205,176.038971 878.869812,176.160492 878.887390,175.453156 
	C878.122009,174.765793 877.356567,174.078430 876.982910,173.047775 
	C876.852844,173.160568 876.722839,173.273346 876.585388,172.791443 
	C876.276733,172.570816 875.968079,172.350189 875.165894,171.908890 
	C874.751221,171.337006 874.336548,170.765106 873.891907,169.563492 
	C873.462158,169.345810 873.032471,169.128128 872.236511,168.727249 
	C872.236511,168.727249 872.089050,168.345276 872.405945,167.752136 
	C871.470581,167.108505 870.535278,166.464890 869.322876,165.670761 
	C869.322876,165.670761 869.174011,165.392822 869.437744,164.796616 
	C868.837769,164.494461 868.237854,164.192291 867.277039,163.732239 
	C867.277039,163.732239 867.111633,163.374771 867.344482,162.825775 
	C866.852478,162.584457 866.360535,162.343155 865.962952,162.046722 
	C865.962952,162.046722 865.917725,162.146255 865.707581,161.632584 
	C865.395203,161.451828 865.082886,161.271057 864.343445,161.002762 
	C864.045715,160.868042 863.891296,160.637390 863.872742,159.582031 
	C862.788086,159.002838 861.703369,158.423645 860.314331,157.700760 
	C860.314331,157.700760 860.150330,157.406860 860.346130,156.821274 
	C859.818542,156.620880 859.290894,156.420471 858.919800,156.098450 
	C858.919800,156.098450 858.807678,156.261871 858.631287,155.736511 
	C858.293640,155.677353 857.955933,155.618179 857.585327,155.464417 
	C857.585327,155.464417 857.485779,155.453354 857.577515,154.730835 
	C856.009766,153.852905 854.442078,152.974976 852.969055,152.019211 
	C852.969055,152.019211 852.912292,152.127853 852.872681,151.421844 
	C849.509766,149.678116 846.146790,147.934372 842.887512,146.142578 
	C842.887512,146.142578 842.853699,146.251801 842.604492,145.643814 
	C841.995361,145.497833 841.386292,145.351837 840.899963,145.122192 
	C840.899963,145.122192 840.835022,145.255844 840.667725,144.559464 
	C840.208069,144.093964 839.833130,143.418152 839.276367,143.194000 
	C828.019470,138.662018 816.988342,133.464478 804.500977,132.965286 
	C794.842163,132.579178 785.205627,131.365768 775.549805,131.240036 
	C764.097534,131.090927 752.635559,131.949265 741.177246,131.962982 
	C674.755554,132.042480 608.333679,132.001831 541.911865,132.001831 
	C449.980225,132.001831 358.048615,132.007721 266.116974,131.989426 
	C259.552887,131.988113 252.984253,131.610550 246.425919,131.761993 
	C237.545013,131.967072 228.666473,132.423355 219.798401,132.961044 
	C216.350723,133.170090 212.797089,133.454651 209.531677,134.473709 
	C202.330505,136.721069 195.155899,139.162308 188.226501,142.123596 
	C184.983627,143.509476 182.334549,146.284821 179.333267,148.416000 
	C179.333267,148.416000 179.342972,148.499802 178.667801,148.255798 
	C177.812347,148.894608 176.956879,149.533417 176.046677,150.057983 
	C176.046677,150.057983 176.150726,150.130234 175.400146,150.062027 
	C173.033493,151.825974 170.666824,153.589935 168.022995,155.093872 
	C168.022995,155.093872 168.323334,155.326706 167.770996,155.347214 
	C167.550888,155.624741 167.330780,155.902267 167.057465,156.066772 
	C167.057465,156.066772 167.162842,156.133865 166.461487,156.111115 
	C165.339020,157.157791 164.216553,158.204468 162.963516,159.685379 
	C162.761978,159.943771 162.497375,160.070374 161.453262,160.085434 
	C160.828506,160.875824 160.203751,161.666214 159.468384,162.501038 
	C159.468384,162.501038 159.410889,162.605438 158.721542,162.315140 
	C156.617462,164.667999 154.513382,167.020859 152.037689,168.994888 
	C152.157913,169.124344 152.278122,169.253815 151.697510,169.369522 
	C150.834396,170.624496 149.971283,171.879486 149.040955,173.035889 
	C149.040955,173.035889 149.147629,173.089310 148.645416,173.283051 
	C148.476059,173.587936 148.306702,173.892822 148.074112,174.080215 
	C148.074112,174.080215 148.189133,174.147888 147.474686,174.148132 
	C146.691833,175.483307 145.908997,176.818497 145.035431,178.032150 
	C145.035431,178.032150 145.159775,178.118958 144.458099,178.136887 
	C137.233582,185.334229 133.435547,194.496826 129.980682,203.796219 
	C128.110703,208.829575 126.744843,214.050217 125.100082,219.983322 
	C124.106003,225.361786 123.111931,230.740265 121.443558,236.605530 
	C121.296204,238.078171 121.019943,239.550797 121.019783,241.023453 
	C120.999855,421.615601 120.997429,602.207703 121.042694,782.799866 
	C121.043121,784.515198 121.692329,786.230347 122.172501,788.754028 
	C122.480919,790.518921 122.646576,792.323425 123.124290,794.041260 
	C124.610512,799.385498 126.215057,804.696899 128.010330,810.765808 
	C132.581100,827.383545 141.092392,841.856506 151.762482,855.191772 
	C151.944275,855.186523 152.126068,855.181335 152.583832,855.299988 
	C152.583832,855.299988 152.745575,855.555664 152.484909,856.196899 
	C153.794785,857.351013 155.104645,858.505066 156.278259,859.721313 
	C156.278259,859.721313 156.339874,859.584778 156.336655,860.290283 
	C157.921280,861.509338 159.505905,862.728394 161.017242,863.989990 
	C161.017242,863.989990 161.050095,863.911865 161.100403,864.595642 
	C161.785843,865.033569 162.471283,865.471497 163.069092,865.931580 
	C163.069092,865.931580 163.088821,865.843384 163.098816,866.550964 
	C164.792038,867.662659 166.485245,868.774292 168.069412,869.906616 
	C168.069412,869.906616 168.085190,869.796753 168.261475,870.469543 
	C175.716202,878.163574 185.276932,882.653076 195.057434,885.882141 
	C206.067062,889.516968 217.680450,891.322998 229.963867,893.961304 
	C417.947052,893.968933 605.930237,893.979431 793.913452,893.938354 
	C795.623047,893.937988 797.332458,893.245544 799.817505,892.953918 
	C801.495361,892.504089 803.173218,892.054260 805.259216,892.264771 
	C805.700562,892.458008 806.221130,892.912659 806.571655,892.806396 
	C816.768066,889.714783 827.075317,886.916748 837.069824,883.264465 
	C841.344421,881.702332 844.961731,878.341614 848.924805,875.910706 
	C848.924805,875.910706 848.819275,875.849426 849.560913,875.928101 
	C851.336487,874.557007 853.112061,873.185913 854.941345,871.925964 
	C854.941345,871.925964 854.834900,871.863464 855.490173,871.866028 
	C855.791992,871.417419 856.093811,870.968811 856.515259,870.466248 
	C856.515259,870.466248 856.593933,870.361206 857.268433,870.644592 
	C857.802429,870.038452 858.336426,869.432312 858.956604,868.955505 
	C858.956604,868.955505 858.832031,868.862610 859.546936,868.882751 
	C860.187317,868.101440 860.827698,867.320068 861.568054,866.535828 
	C861.568054,866.535828 861.587341,866.437683 862.281860,866.680908 
	C862.799438,866.052368 863.317078,865.423828 863.916199,864.920227 
	C863.916199,864.920227 863.787354,864.845093 864.309937,864.709229 
	C864.504211,864.418701 864.698425,864.128174 864.964417,863.957764 
	C864.964417,863.957764 864.852478,863.873718 865.470764,863.868408 
	C865.679382,863.448730 865.888062,863.029053 866.392090,862.109375 
	C866.582397,862.074341 866.772766,862.039307 867.077698,862.289307 
	C867.077698,862.289307 867.285645,862.070190 867.285645,862.070190 
	C867.285645,862.070190 867.005615,861.947327 867.254822,861.243286 
	C867.490784,861.163879 867.726746,861.084412 868.076904,861.290405 
z"/>
<path fill="#1C293A" opacity="1.000000" stroke="none" 
	d="
M918.076782,853.038696 
	C918.163391,851.765137 918.060791,850.040588 918.753906,848.739990 
	C930.455322,826.782410 936.101074,803.436401 936.088074,778.515747 
	C935.993408,597.351135 936.083191,416.186523 935.941956,235.022034 
	C935.931824,222.029312 932.436035,209.481506 928.174011,197.218628 
	C927.762634,196.035019 927.673157,194.739532 927.669678,193.243927 
	C934.528442,208.602310 937.784729,225.017517 937.797729,241.843689 
	C937.936523,421.958679 937.984314,602.073914 937.756470,782.188721 
	C937.724731,807.288513 930.606384,830.867188 918.076782,853.038696 
z"/>
<path fill="#000007" opacity="1.000000" stroke="none" 
	d="
M220.001022,926.043091 
	C331.725952,926.363403 443.450745,926.767334 555.175903,926.975647 
	C633.795044,927.122253 712.414978,927.099243 791.033752,926.870850 
	C800.068298,926.844604 809.097595,925.009705 818.562012,924.223022 
	C818.994690,924.432617 818.990417,924.838623 818.990417,924.838623 
	C808.617615,925.892822 798.245667,927.855774 787.871826,927.866211 
	C603.999878,928.051086 420.127625,928.006165 236.255478,927.956177 
	C231.113876,927.954773 225.972458,927.349304 220.418945,926.731079 
	C220.006943,926.436646 220.001022,926.043091 220.001022,926.043091 
z"/>
<path fill="#000007" opacity="1.000000" stroke="none" 
	d="
M791.997131,98.977478 
	C604.974243,98.981918 417.951324,98.986366 230.466644,98.777931 
	C230.004883,98.565048 230.007721,98.159477 230.007721,98.159477 
	C252.653244,98.080849 275.298767,97.933792 297.944305,97.934532 
	C462.323608,97.939903 626.702942,97.975075 791.539551,98.282700 
	C791.996826,98.564583 791.997131,98.977478 791.997131,98.977478 
z"/>
<path fill="#000007" opacity="1.000000" stroke="none" 
	d="
M88.091690,239.492691 
	C88.434975,240.787628 88.949623,242.544861 88.949989,244.302170 
	C88.986992,423.885895 88.985191,603.469604 88.770340,783.524292 
	C88.554924,783.995239 88.144226,783.993347 88.144226,783.993347 
	C88.087288,752.357483 87.982040,720.721680 87.981636,689.085815 
	C87.979713,539.375549 88.006447,389.665283 88.091690,239.492691 
z"/>
<path fill="#060A12" opacity="1.000000" stroke="none" 
	d="
M229.581863,98.080032 
	C230.007721,98.159477 230.004883,98.565048 230.006073,98.767494 
	C220.417557,100.446442 210.538223,100.934799 201.308655,103.639999 
	C188.684601,107.340111 176.542984,112.695457 164.222031,117.413017 
	C161.605988,118.414665 159.108185,119.725098 156.181671,120.878670 
	C178.150925,106.486580 202.765320,99.394302 229.581863,98.080032 
z"/>
<path fill="#060A12" opacity="1.000000" stroke="none" 
	d="
M106.586952,174.013351 
	C104.526550,179.957993 101.838417,185.978317 99.884399,192.228165 
	C96.940742,201.643341 94.518097,211.221191 91.835045,220.718903 
	C91.718605,221.131088 91.213585,221.433487 90.525238,221.870972 
	C92.214951,205.620575 97.995857,190.517197 105.363152,175.938263 
	C105.660194,175.350449 105.979111,174.773682 106.586952,174.013351 
z"/>
<path fill="#060A12" opacity="1.000000" stroke="none" 
	d="
M219.727600,925.745239 
	C220.001022,926.043091 220.006943,926.436646 220.008743,926.633423 
	C203.688736,925.598877 188.250366,921.090820 173.431168,914.280640 
	C172.979645,914.073120 172.494202,913.939331 171.819733,913.471191 
	C173.817764,913.755676 176.109573,914.118530 178.208969,914.960876 
	C191.497345,920.292725 205.208374,923.907776 219.727600,925.745239 
z"/>
<path fill="#060A12" opacity="1.000000" stroke="none" 
	d="
M792.378906,99.146576 
	C791.997131,98.977478 791.996826,98.564583 791.994995,98.358147 
	C807.986328,98.569885 823.693665,100.635803 838.952637,106.599854 
	C832.581909,105.508522 826.083435,103.827560 819.487488,102.736031 
	C812.237122,101.536217 804.896423,100.883400 797.596375,99.981758 
	C795.981689,99.782326 794.372375,99.538864 792.378906,99.146576 
z"/>
<path fill="#060A12" opacity="1.000000" stroke="none" 
	d="
M819.393555,924.901489 
	C818.990417,924.838623 818.994690,924.432617 818.997803,924.229980 
	C829.109863,920.698059 839.246521,917.449829 849.313477,913.998413 
	C853.178406,912.673401 856.884338,910.885071 861.018860,909.480469 
	C848.349976,917.022766 834.373901,921.809875 819.393555,924.901489 
z"/>
<path fill="#060A12" opacity="1.000000" stroke="none" 
	d="
M874.007812,123.591660 
	C869.921448,121.836227 865.675415,119.773193 861.426880,117.715248 
	C855.074768,114.638359 848.720886,111.565033 842.198975,108.176254 
	C851.096069,112.049767 860.175659,116.207970 869.215210,120.451630 
	C870.843750,121.216141 872.307251,122.332443 874.007812,123.591660 
z"/>
<path fill="#060A12" opacity="1.000000" stroke="none" 
	d="
M88.069107,784.439087 
	C88.144226,783.993347 88.554924,783.995239 88.759865,783.992126 
	C90.491722,793.690247 92.031326,803.389587 93.527962,813.095459 
	C93.697388,814.194214 93.624741,815.330261 93.406570,816.713989 
	C91.430534,806.280884 89.712265,795.582886 88.069107,784.439087 
z"/>
<path fill="#1C293A" opacity="1.000000" stroke="none" 
	d="
M904.484131,873.046753 
	C905.970215,870.574646 907.758972,867.956055 909.875000,865.233765 
	C908.397095,867.720154 906.591919,870.310242 904.484131,873.046753 
z"/>
<path fill="#060A12" opacity="1.000000" stroke="none" 
	d="
M861.907959,909.346558 
	C863.640320,908.099854 865.654907,906.685242 868.032104,905.419006 
	C866.326599,906.771118 864.258362,907.974915 861.907959,909.346558 
z"/>
<path fill="#060A12" opacity="1.000000" stroke="none" 
	d="
M110.590508,167.011108 
	C109.761322,169.135971 108.631950,171.428040 107.161301,173.816650 
	C107.976791,171.668228 109.133560,169.423279 110.590508,167.011108 
z"/>
<path fill="#060A12" opacity="1.000000" stroke="none" 
	d="
M128.048706,143.742340 
	C127.029968,145.338394 125.776016,147.137085 124.160660,148.940735 
	C125.137329,147.278793 126.475403,145.611877 128.048706,143.742340 
z"/>
<path fill="#060A12" opacity="1.000000" stroke="none" 
	d="
M114.557335,160.952423 
	C113.756622,162.825455 112.657883,164.855072 111.202080,166.890549 
	C111.983116,164.967255 113.121216,163.038132 114.557335,160.952423 
z"/>
<path fill="#060A12" opacity="1.000000" stroke="none" 
	d="
M155.553772,120.873291 
	C154.096909,122.159210 152.307434,123.531075 150.154083,124.881195 
	C151.600540,123.559380 153.410858,122.259315 155.553772,120.873291 
z"/>
<path fill="#060A12" opacity="1.000000" stroke="none" 
	d="
M122.666229,150.004715 
	C122.154388,151.205185 121.349091,152.548752 120.185928,153.895508 
	C120.676300,152.648392 121.524536,151.398102 122.666229,150.004715 
z"/>
<path fill="#060A12" opacity="1.000000" stroke="none" 
	d="
M881.059265,128.568512 
	C879.838501,128.099823 878.470337,127.339020 877.089050,126.219604 
	C878.354614,126.666130 879.633240,127.471268 881.059265,128.568512 
z"/>
<path fill="#060A12" opacity="1.000000" stroke="none" 
	d="
M140.595062,131.931213 
	C140.043427,132.813828 139.195740,133.801529 137.980133,134.703461 
	C138.507812,133.757217 139.403427,132.896759 140.595062,131.931213 
z"/>
<path fill="#1C293A" opacity="1.000000" stroke="none" 
	d="
M901.441284,876.933960 
	C901.967712,875.809143 902.787720,874.559814 903.914429,873.231140 
	C903.392456,874.371094 902.563660,875.590271 901.441284,876.933960 
z"/>
<path fill="#1C293A" opacity="1.000000" stroke="none" 
	d="
M915.076965,858.076904 
	C915.536011,856.763306 916.174866,855.233032 917.110840,853.823975 
	C916.690918,855.250244 915.973816,856.555237 915.076965,858.076904 
z"/>
<path fill="#060A12" opacity="1.000000" stroke="none" 
	d="
M883.850220,130.716354 
	C883.034851,130.460098 882.065979,129.937042 881.115906,129.100891 
	C881.988708,129.341736 882.842651,129.895660 883.850220,130.716354 
z"/>
<path fill="#060A12" opacity="1.000000" stroke="none" 
	d="
M119.596710,153.972382 
	C119.090378,155.134293 118.287186,156.436249 117.147888,157.830414 
	C117.641144,156.652557 118.470505,155.382492 119.596710,153.972382 
z"/>
<path fill="#1C293A" opacity="1.000000" stroke="none" 
	d="
M912.438965,862.072266 
	C912.712952,861.024780 913.258911,859.864014 914.105103,858.823608 
	C913.840576,859.948975 913.275757,860.953918 912.438965,862.072266 
z"/>
<path fill="#060A12" opacity="1.000000" stroke="none" 
	d="
M876.998779,125.629562 
	C876.180420,125.436325 875.220520,124.954460 874.166748,124.141037 
	C875.000977,124.319962 875.929077,124.830452 876.998779,125.629562 
z"/>
<path fill="#1C293A" opacity="1.000000" stroke="none" 
	d="
M910.449524,865.046631 
	C910.627136,864.230835 911.095764,863.285461 911.888794,862.238647 
	C911.722290,863.063904 911.231445,863.990479 910.449524,865.046631 
z"/>
<path fill="#060A12" opacity="1.000000" stroke="none" 
	d="
M144.392365,128.696411 
	C143.980316,129.357620 143.278625,130.138504 142.221024,130.920502 
	C142.610977,130.219757 143.356842,129.517914 144.392365,128.696411 
z"/>
<path fill="#060A12" opacity="1.000000" stroke="none" 
	d="
M116.605392,157.974991 
	C116.409798,158.796005 115.925415,159.760162 115.103210,160.805649 
	C115.282463,159.964035 115.799530,159.041077 116.605392,157.974991 
z"/>
<path fill="#060A12" opacity="1.000000" stroke="none" 
	d="
M870.429199,904.149414 
	C870.909485,903.520447 871.699341,902.805725 872.839478,902.111694 
	C872.372742,902.776123 871.555786,903.419861 870.429199,904.149414 
z"/>
<path fill="#060A12" opacity="1.000000" stroke="none" 
	d="
M135.110321,136.668427 
	C134.937943,137.183701 134.560913,137.837311 133.864899,138.356262 
	C133.999176,137.750000 134.452438,137.278381 135.110321,136.668427 
z"/>
<path fill="#060A12" opacity="1.000000" stroke="none" 
	d="
M841.954651,107.621964 
	C841.207886,107.777679 840.298767,107.619209 839.211731,107.154724 
	C839.953308,107.001740 840.872803,107.154762 841.954651,107.621964 
z"/>
<path fill="#060A12" opacity="1.000000" stroke="none" 
	d="
M876.336792,900.062012 
	C876.640991,899.558472 877.227051,898.977051 878.132812,898.485962 
	C877.841187,899.045654 877.229858,899.514893 876.336792,900.062012 
z"/>
<path fill="#060A12" opacity="1.000000" stroke="none" 
	d="
M874.640625,901.355164 
	C874.734619,901.011169 875.099365,900.556946 875.799255,900.088745 
	C875.726746,900.464783 875.319031,900.854797 874.640625,901.355164 
z"/>
<path fill="#060A12" opacity="1.000000" stroke="none" 
	d="
M868.755920,905.393066 
	C868.844299,905.058350 869.182495,904.588745 869.865295,904.133362 
	C869.808472,904.517761 869.407043,904.887939 868.755920,905.393066 
z"/>
<path fill="#060A12" opacity="1.000000" stroke="none" 
	d="
M147.040970,126.650909 
	C146.988083,126.962700 146.722183,127.416199 146.123779,127.855438 
	C146.136810,127.491669 146.482391,127.142136 147.040970,126.650909 
z"/>
<path fill="#060A12" opacity="1.000000" stroke="none" 
	d="
M130.042023,141.764252 
	C130.132462,141.703064 130.401932,142.097458 130.401932,142.097458 
	C130.401932,142.097458 130.063080,142.431427 129.865173,142.292877 
	C129.667282,142.154327 129.951584,141.825439 130.042023,141.764252 
z"/>
<path fill="#060A12" opacity="1.000000" stroke="none" 
	d="
M145.599899,127.848709 
	C145.635925,128.067413 145.410004,128.363098 144.889740,128.668381 
	C144.842926,128.427231 145.090439,128.176468 145.599899,127.848709 
z"/>
<path fill="#060A12" opacity="1.000000" stroke="none" 
	d="
M873.369507,902.136475 
	C873.351685,901.925232 873.592773,901.642700 874.127869,901.376648 
	C874.157288,901.617065 873.892822,901.841125 873.369507,902.136475 
z"/>
<path fill="#060A12" opacity="1.000000" stroke="none" 
	d="
M878.771240,898.340576 
	C878.557922,898.145508 878.479797,897.908936 878.401733,897.672302 
	C878.527588,897.685608 878.653381,897.698914 878.889160,897.871948 
	C878.999084,898.031616 878.906433,898.299072 878.771240,898.340576 
z"/>
<path fill="#060A12" opacity="1.000000" stroke="none" 
	d="
M141.678345,130.942352 
	C141.736450,131.149277 141.532715,131.442917 141.068268,131.825256 
	C141.010513,131.618988 141.213501,131.324020 141.678345,130.942352 
z"/>
<path fill="#060A12" opacity="1.000000" stroke="none" 
	d="
M148.437897,125.630585 
	C148.468353,125.874237 148.295624,126.172417 147.863586,126.350998 
	C147.769196,125.997116 147.979340,125.815018 148.437897,125.630585 
z"/>
<path fill="#060A12" opacity="1.000000" stroke="none" 
	d="
M129.023773,142.758041 
	C129.192032,142.875534 129.267883,143.058105 129.273880,143.242966 
	C129.276352,143.319534 129.129288,143.400940 128.818298,143.373566 
	C128.651337,143.090302 128.756943,142.942657 129.023773,142.758041 
z"/>
<path fill="#060A12" opacity="1.000000" stroke="none" 
	d="
M131.042542,140.763123 
	C131.134811,140.702148 131.403030,141.099121 131.403030,141.099121 
	C131.403030,141.099121 131.061981,141.432953 130.862488,141.295258 
	C130.662994,141.157578 130.950287,140.824097 131.042542,140.763123 
z"/>
<path fill="#060A12" opacity="1.000000" stroke="none" 
	d="
M132.043121,139.761536 
	C132.136078,139.700302 132.403656,140.098724 132.403656,140.098724 
	C132.403656,140.098724 132.062622,140.433792 131.862305,140.296616 
	C131.662003,140.159439 131.950150,139.822784 132.043121,139.761536 
z"/>
<path fill="#060A12" opacity="1.000000" stroke="none" 
	d="
M133.058914,138.742035 
	C133.159851,138.680862 133.414581,139.095749 133.414581,139.095749 
	C133.414581,139.095749 133.067520,139.434586 132.862305,139.298981 
	C132.657074,139.163361 132.957977,138.803192 133.058914,138.742035 
z"/>
<path fill="#060A12" opacity="1.000000" stroke="none" 
	d="
M136.273041,135.628052 
	C136.337326,135.856506 136.219849,136.175720 135.826385,136.406479 
	C135.682709,136.074997 135.862991,135.875244 136.273041,135.628052 
z"/>
<path fill="#060A12" opacity="1.000000" stroke="none" 
	d="
M137.417191,134.674988 
	C137.471680,134.913635 137.294662,135.239136 136.818069,135.521271 
	C136.671707,135.174759 136.894104,134.936081 137.417191,134.674988 
z"/>
<path fill="#060A12" opacity="1.000000" stroke="none" 
	d="
M149.626434,124.841949 
	C149.654160,125.060074 149.417053,125.354073 148.881927,125.647224 
	C148.843140,125.403526 149.102386,125.160683 149.626434,124.841949 
z"/>
<path fill="#FFFFFF" opacity="0" stroke="none" 
	d="
M873.921875,170.193237 
	C874.336548,170.765106 874.751221,171.337006 875.498657,172.278625 
	C876.085205,172.894272 876.338989,173.140182 876.592773,173.386108 
	C876.722839,173.273346 876.852844,173.160568 876.895996,173.507019 
	C877.495972,174.697678 878.182861,175.429092 878.869812,176.160492 
	C878.869812,176.160492 878.960205,176.038971 879.002197,176.408295 
	C881.281372,179.933167 883.518616,183.088730 885.755859,186.244293 
	C885.755859,186.244293 885.897705,186.063324 885.881714,186.485870 
	C888.544556,192.005936 891.223328,197.103470 893.928101,202.573578 
	C896.688171,213.958740 899.422363,224.971329 902.156494,235.983932 
	C902.147095,291.109039 902.128662,346.234161 902.130066,401.359283 
	C902.133240,528.107483 902.146545,654.855713 902.150757,781.603943 
	C902.150757,782.769104 902.082153,783.934265 902.029724,785.984985 
	C900.781250,794.225586 899.548645,801.580627 898.315979,808.935608 
	C894.374268,822.424194 888.565918,835.006165 879.809937,846.824036 
	C878.926575,848.178528 878.389038,849.033386 877.851501,849.888306 
	C877.851501,849.888306 877.972961,849.972412 877.648438,850.031738 
	C876.734375,850.899841 876.144775,851.708618 875.555176,852.517456 
	C875.555237,852.517456 875.579956,852.608765 875.284546,852.774170 
	C874.271606,853.916992 873.554138,854.894531 872.836670,855.872070 
	C872.836670,855.872070 872.969116,855.968506 872.699890,855.970703 
	C872.166565,856.339355 871.902466,856.705872 871.638367,857.072388 
	C871.464417,857.166443 871.290466,857.260437 871.080688,857.674438 
	C871.044983,857.994385 870.957031,858.009399 870.957031,858.009399 
	C870.714172,858.085938 870.471252,858.162537 870.130554,858.628235 
	C870.032776,859.017273 869.939575,859.021729 869.939575,859.021729 
	C869.706909,859.099182 869.474304,859.176575 869.141602,859.626465 
	C869.041382,859.998901 868.961975,860.005188 868.961975,860.005188 
	C868.726379,860.085571 868.490845,860.165894 868.148438,860.622314 
	C868.041565,860.998413 867.962646,861.005005 867.962646,861.005005 
	C867.726746,861.084412 867.490784,861.163879 867.148193,861.619873 
	C867.041565,861.996460 866.963196,862.004211 866.963196,862.004211 
	C866.772766,862.039307 866.582397,862.074341 866.039612,862.470215 
	C865.408936,863.178589 865.130737,863.526184 864.852539,863.873779 
	C864.852478,863.873718 864.964417,863.957764 864.672974,863.978149 
	C864.183472,864.280762 863.985413,864.562927 863.787354,864.845093 
	C863.787354,864.845093 863.916199,864.920227 863.601379,864.935425 
	C862.720154,865.446289 862.153748,865.941956 861.587341,866.437622 
	C861.587341,866.437683 861.568054,866.535828 861.247253,866.666138 
	C860.228333,867.485168 859.530151,868.173889 858.832031,868.862610 
	C858.832031,868.862610 858.956604,868.955505 858.643555,868.965027 
	C857.751587,869.436768 857.172791,869.898987 856.593933,870.361206 
	C856.593933,870.361206 856.515259,870.466248 856.213379,870.610718 
	C855.552612,871.124573 855.193787,871.494019 854.834961,871.863525 
	C854.834900,871.863464 854.941345,871.925964 854.587158,871.962280 
	C852.428467,873.282227 850.623901,874.565857 848.819275,875.849426 
	C848.819275,875.849426 848.924805,875.910706 848.550903,875.929016 
	C834.827148,884.188477 820.215759,888.938660 804.851074,891.604431 
	C803.173218,892.054260 801.495361,892.504089 799.281006,892.608032 
	C797.847595,892.230652 796.950806,892.199280 795.589722,892.075317 
	C608.387390,891.985596 421.649323,891.987976 234.911285,891.999329 
	C233.251511,891.999451 231.591736,892.119690 229.500031,892.114685 
	C222.858673,891.153748 216.584167,890.576599 210.452530,889.308533 
	C194.857056,886.083130 181.107803,878.691956 168.085190,869.796753 
	C168.085190,869.796753 168.069412,869.906616 167.978180,869.599243 
	C166.287582,868.142395 164.688202,866.992859 163.088821,865.843384 
	C163.088821,865.843384 163.069092,865.931580 162.994659,865.643494 
	C162.296844,864.874207 161.673477,864.393005 161.050110,863.911865 
	C161.050095,863.911865 161.017242,863.989990 160.915192,863.671997 
	C159.322037,862.097534 157.830963,860.841187 156.339874,859.584778 
	C156.339874,859.584778 156.278259,859.721313 156.206619,859.410522 
	C155.005173,857.918396 153.875381,856.737000 152.745575,855.555664 
	C152.745575,855.555664 152.583832,855.299988 152.410034,855.163696 
	C152.236237,855.027405 152.077026,854.983276 152.077026,854.983276 
	C141.092392,841.856506 132.581100,827.383545 127.861923,810.006714 
	C126.404137,799.588562 123.964493,789.930908 123.952980,780.270386 
	C123.741203,602.557068 123.775948,424.843414 123.960228,247.130005 
	C123.969963,237.744568 125.766029,228.360992 126.859604,218.601273 
	C130.245117,203.588120 136.963333,190.518677 145.159775,178.118958 
	C145.159775,178.118958 145.035431,178.032150 145.375763,177.960785 
	C146.540436,176.642242 147.364777,175.395065 148.189117,174.147888 
	C148.189133,174.147888 148.074112,174.080215 148.358643,174.046738 
	C148.811340,173.705276 148.979492,173.397293 149.147629,173.089310 
	C149.147629,173.089310 149.040955,173.035889 149.366592,172.956161 
	C150.594269,171.712051 151.496307,170.547684 152.398346,169.383301 
	C152.278122,169.253815 152.157913,169.124344 152.509491,169.027100 
	C155.124496,166.908020 157.267700,164.756729 159.410889,162.605438 
	C159.410889,162.605438 159.468384,162.501038 159.783234,162.330872 
	C160.788635,161.462204 161.479172,160.763687 162.169708,160.065170 
	C162.497375,160.070374 162.761978,159.943771 163.338333,159.360062 
	C164.863037,158.067780 166.012939,157.100815 167.162842,156.133865 
	C167.162842,156.133865 167.057465,156.066772 167.341461,156.062378 
	C167.858078,155.814224 168.090714,155.570465 168.323334,155.326706 
	C168.323334,155.326706 168.022995,155.093872 168.492584,155.130585 
	C171.358353,153.488266 173.754547,151.809250 176.150726,150.130234 
	C176.150726,150.130234 176.046677,150.057983 176.381683,150.063049 
	C177.592117,149.545334 178.467545,149.022568 179.342972,148.499786 
	C179.342972,148.499802 179.333267,148.416000 179.706116,148.307709 
	C196.617249,139.134781 214.159180,133.861008 233.166397,133.864914 
	C419.246063,133.903046 605.325745,133.898560 791.405334,134.007370 
	C797.845337,134.011139 804.482666,134.279800 810.679565,135.823624 
	C820.881470,138.365204 830.798096,142.051880 840.835022,145.255829 
	C840.835022,145.255844 840.899963,145.122192 840.992981,145.431671 
	C841.675232,145.911362 842.264465,146.081573 842.853699,146.251801 
	C842.853699,146.251801 842.887512,146.142578 843.017090,146.460297 
	C846.401917,148.561310 849.657104,150.344589 852.912292,152.127869 
	C852.912292,152.127853 852.969055,152.019211 853.067810,152.348801 
	C854.606323,153.603378 856.046021,154.528366 857.485779,155.453369 
	C857.485779,155.453354 857.585327,155.464417 857.746155,155.704742 
	C858.177368,156.135345 858.477600,156.240952 858.807678,156.261871 
	C858.807678,156.261871 858.919800,156.098450 858.923462,156.383514 
	C859.334839,156.914673 859.742615,157.160767 860.150330,157.406860 
	C860.150330,157.406860 860.314331,157.700760 860.663330,157.988068 
	C861.968262,158.953857 862.924194,159.632324 863.880127,160.310791 
	C863.891296,160.637390 864.045715,160.868042 864.662598,161.302429 
	C865.293762,161.783493 865.605713,161.964890 865.917725,162.146271 
	C865.917725,162.146255 865.962952,162.046722 865.985229,162.296402 
	C866.375549,162.822311 866.743591,163.098541 867.111633,163.374771 
	C867.111633,163.374771 867.277039,163.732239 867.567017,164.001312 
	C868.296021,164.644547 868.734985,165.018677 869.174011,165.392822 
	C869.174011,165.392822 869.322876,165.670761 869.596191,165.964111 
	C870.609375,166.953415 871.349182,167.649353 872.089050,168.345276 
	C872.089050,168.345276 872.236511,168.727249 872.534485,169.029633 
	C873.195557,169.619080 873.558716,169.906158 873.921875,170.193237 
M594.859009,403.000336 
	C653.245178,403.003265 711.631348,403.014130 770.017456,402.967346 
	C771.617554,402.966064 773.217163,402.344269 774.967346,401.083771 
	C774.967346,357.147888 774.967346,313.211975 774.967346,269.221161 
	C600.158386,269.221161 425.785828,269.221161 251.380615,269.221161 
	C251.380615,313.886597 251.380615,358.290131 251.380615,403.025177 
	C253.232559,403.025177 254.869003,403.025085 256.505463,403.025238 
	C283.500916,403.027557 310.496429,403.011658 337.491852,403.036957 
	C368.982697,403.066498 400.473511,403.131958 431.976898,403.604553 
	C431.976898,403.604553 432.140198,403.994720 432.002075,404.926239 
	C432.002075,521.945618 432.002075,638.965027 432.002075,755.719360 
	C486.445038,755.719360 540.175476,755.719360 593.856018,755.719360 
	C593.856018,713.272034 593.856018,671.140442 594.028381,628.085205 
	C593.961365,566.331909 593.887207,504.578583 593.833191,442.825256 
	C593.821594,429.539642 593.882629,416.253937 594.859009,403.000336 
z"/>
<path fill="#091B34" opacity="1.000000" stroke="none" 
	d="
M840.751343,144.907654 
	C830.798096,142.051880 820.881470,138.365204 810.679565,135.823624 
	C804.482666,134.279800 797.845337,134.011139 791.405334,134.007370 
	C605.325745,133.898560 419.246063,133.903046 233.166397,133.864914 
	C214.159180,133.861008 196.617249,139.134781 179.747665,148.314941 
	C182.334549,146.284821 184.983627,143.509476 188.226501,142.123596 
	C195.155899,139.162308 202.330505,136.721069 209.531677,134.473709 
	C212.797089,133.454651 216.350723,133.170090 219.798401,132.961044 
	C228.666473,132.423355 237.545013,131.967072 246.425919,131.761993 
	C252.984253,131.610550 259.552887,131.988113 266.116974,131.989426 
	C358.048615,132.007721 449.980225,132.001831 541.911865,132.001831 
	C608.333679,132.001831 674.755554,132.042480 741.177246,131.962982 
	C752.635559,131.949265 764.097534,131.090927 775.549805,131.240036 
	C785.205627,131.365768 794.842163,132.579178 804.500977,132.965286 
	C816.988342,133.464478 828.019470,138.662018 839.276367,143.194000 
	C839.833130,143.418152 840.208069,144.093964 840.751343,144.907654 
z"/>
<path fill="#273443" opacity="1.000000" stroke="none" 
	d="
M126.730484,218.976547 
	C125.766029,228.360992 123.969963,237.744568 123.960228,247.130005 
	C123.775948,424.843414 123.741203,602.557068 123.952980,780.270386 
	C123.964493,789.930908 126.404137,799.588562 127.743607,809.634277 
	C126.215057,804.696899 124.610512,799.385498 123.124290,794.041260 
	C122.646576,792.323425 122.480919,790.518921 122.115158,787.887207 
	C122.058693,713.366699 122.053085,639.713074 122.061981,566.059387 
	C122.075256,456.079163 122.098732,346.098938 122.117859,236.118729 
	C123.111931,230.740265 124.106003,225.361786 125.385422,219.532501 
	C126.024002,219.046646 126.377243,219.011597 126.730484,218.976547 
z"/>
<path fill="#01010F" opacity="1.000000" stroke="none" 
	d="
M796.053955,892.167908 
	C796.950806,892.199280 797.847595,892.230652 798.893188,892.569153 
	C797.332458,893.245544 795.623047,893.937988 793.913452,893.938354 
	C605.930237,893.979431 417.947052,893.968933 229.598663,893.741333 
	C229.425278,893.273804 229.670120,893.101807 230.438293,892.995239 
	C417.196228,892.987183 603.483887,892.991699 789.771484,892.956787 
	C791.865723,892.956421 793.959778,892.442261 796.053955,892.167908 
z"/>
<path fill="#072241" opacity="1.000000" stroke="none" 
	d="
M121.780708,236.362122 
	C122.098732,346.098938 122.075256,456.079163 122.061981,566.059387 
	C122.053085,639.713074 122.058693,713.366699 122.048225,787.483032 
	C121.692329,786.230347 121.043121,784.515198 121.042694,782.799866 
	C120.997429,602.207703 120.999855,421.615601 121.019783,241.023453 
	C121.019943,239.550797 121.296204,238.078171 121.780708,236.362122 
z"/>
<path fill="#01010F" opacity="1.000000" stroke="none" 
	d="
M903.052307,786.008057 
	C903.052307,603.403198 903.052307,420.798309 903.052307,238.193451 
	C903.355713,238.193298 903.659058,238.193130 903.962463,238.192963 
	C903.962463,420.480408 903.962463,602.767822 903.726501,785.527588 
	C903.490540,785.999817 903.052307,786.008057 903.052307,786.008057 
z"/>
<path fill="#060A12" opacity="1.000000" stroke="none" 
	d="
M229.968002,893.005188 
	C229.670120,893.101807 229.425278,893.273804 229.132355,893.722900 
	C217.680450,891.322998 206.067062,889.516968 195.057434,885.882141 
	C185.276932,882.653076 175.716202,878.163574 168.173340,870.133179 
	C181.107803,878.691956 194.857056,886.083130 210.452530,889.308533 
	C216.584167,890.576599 222.858673,891.153748 229.511002,892.319946 
	C229.953888,892.594421 229.968002,893.005188 229.968002,893.005188 
z"/>
<path fill="#091B34" opacity="1.000000" stroke="none" 
	d="
M126.859612,218.601273 
	C126.377243,219.011597 126.024002,219.046646 125.411163,219.134018 
	C126.744843,214.050217 128.110703,208.829575 129.980682,203.796219 
	C133.435547,194.496826 137.233582,185.334229 144.808929,178.127930 
	C136.963333,190.518677 130.245117,203.588120 126.859612,218.601273 
z"/>
<path fill="#091B34" opacity="1.000000" stroke="none" 
	d="
M805.055176,891.934570 
	C820.215759,888.938660 834.827148,884.188477 848.527344,875.872681 
	C844.961731,878.341614 841.344421,881.702332 837.069824,883.264465 
	C827.075317,886.916748 816.768066,889.714783 806.571655,892.806396 
	C806.221130,892.912659 805.700562,892.458008 805.055176,891.934570 
z"/>
<path fill="#01010F" opacity="1.000000" stroke="none" 
	d="
M902.423157,235.692932 
	C899.422363,224.971329 896.688171,213.958740 893.972900,202.271362 
	C893.995361,201.392944 893.998901,201.189301 894.002441,200.985657 
	C899.292297,211.853439 902.701111,223.196014 902.423157,235.692932 
z"/>
<path fill="#060A12" opacity="1.000000" stroke="none" 
	d="
M902.833618,786.014160 
	C903.052307,786.008057 903.490540,785.999817 903.708801,785.995239 
	C902.957886,791.971008 902.075134,797.967407 900.964294,803.921265 
	C900.650208,805.604919 899.669312,807.164124 898.655090,808.858032 
	C899.548645,801.580627 900.781250,794.225586 902.095703,786.451721 
	C902.177490,786.032837 902.614868,786.020203 902.833618,786.014160 
z"/>
<path fill="#091B34" opacity="1.000000" stroke="none" 
	d="
M893.995361,200.609329 
	C893.998901,201.189301 893.995361,201.392944 893.946960,201.898804 
	C891.223328,197.103470 888.544556,192.005936 885.791382,186.556976 
	C888.474121,190.881363 891.231201,195.557175 893.995361,200.609329 
z"/>
<path fill="#091B34" opacity="1.000000" stroke="none" 
	d="
M885.824036,185.844452 
	C883.518616,183.088730 881.281372,179.933167 878.939209,176.450378 
	C883.034241,177.831558 885.786987,180.635757 885.824036,185.844452 
z"/>
<path fill="#091B34" opacity="1.000000" stroke="none" 
	d="
M159.066223,162.460297 
	C157.267700,164.756729 155.124496,166.908020 152.695312,169.216507 
	C154.513382,167.020859 156.617462,164.667999 159.066223,162.460297 
z"/>
<path fill="#091B34" opacity="1.000000" stroke="none" 
	d="
M852.892456,151.774857 
	C849.657104,150.344589 846.401917,148.561310 842.965271,146.484344 
	C846.146790,147.934372 849.509766,149.678116 852.892456,151.774857 
z"/>
<path fill="#091B34" opacity="1.000000" stroke="none" 
	d="
M175.775436,150.096130 
	C173.754547,151.809250 171.358353,153.488266 168.631165,155.260590 
	C170.666824,153.589935 173.033493,151.825974 175.775436,150.096130 
z"/>
<path fill="#091B34" opacity="1.000000" stroke="none" 
	d="
M849.190063,875.888794 
	C850.623901,874.565857 852.428467,873.282227 854.560303,871.906738 
	C853.112061,873.185913 851.336487,874.557007 849.190063,875.888794 
z"/>
<path fill="#060A12" opacity="1.000000" stroke="none" 
	d="
M163.093811,866.197144 
	C164.688202,866.992859 166.287582,868.142395 168.032715,869.588928 
	C166.485245,868.774292 164.792038,867.662659 163.093811,866.197144 
z"/>
<path fill="#060A12" opacity="1.000000" stroke="none" 
	d="
M156.338272,859.937500 
	C157.830963,860.841187 159.322037,862.097534 160.951843,863.650696 
	C159.505905,862.728394 157.921280,861.509338 156.338272,859.937500 
z"/>
<path fill="#091B34" opacity="1.000000" stroke="none" 
	d="
M857.531616,155.092102 
	C856.046021,154.528366 854.606323,153.603378 853.020447,152.387726 
	C854.442078,152.974976 856.009766,153.852905 857.531616,155.092102 
z"/>
<path fill="#091B34" opacity="1.000000" stroke="none" 
	d="
M147.831909,174.148010 
	C147.364777,175.395065 146.540436,176.642242 145.421112,178.021545 
	C145.908997,176.818497 146.691833,175.483307 147.831909,174.148010 
z"/>
<path fill="#091B34" opacity="1.000000" stroke="none" 
	d="
M873.213623,855.872559 
	C873.554138,854.894531 874.271606,853.916992 875.238159,852.764771 
	C874.854980,853.684387 874.222717,854.778687 873.213623,855.872559 
z"/>
<path fill="#060A12" opacity="1.000000" stroke="none" 
	d="
M152.615250,855.876282 
	C153.875381,856.737000 155.005173,857.918396 156.274750,859.379395 
	C155.104645,858.505066 153.794785,857.351013 152.615250,855.876282 
z"/>
<path fill="#091B34" opacity="1.000000" stroke="none" 
	d="
M152.047928,169.376404 
	C151.496307,170.547684 150.594269,171.712051 149.400208,173.005447 
	C149.971283,171.879486 150.834396,170.624496 152.047928,169.376404 
z"/>
<path fill="#091B34" opacity="1.000000" stroke="none" 
	d="
M863.876465,159.946411 
	C862.924194,159.632324 861.968262,158.953857 860.815552,158.059921 
	C861.703369,158.423645 862.788086,159.002838 863.876465,159.946411 
z"/>
<path fill="#091B34" opacity="1.000000" stroke="none" 
	d="
M166.812164,156.122498 
	C166.012939,157.100815 164.863037,158.067780 163.403625,159.142944 
	C164.216553,158.204468 165.339020,157.157791 166.812164,156.122498 
z"/>
<path fill="#091B34" opacity="1.000000" stroke="none" 
	d="
M878.158813,849.890503 
	C878.389038,849.033386 878.926575,848.178528 879.720276,847.155151 
	C879.473022,847.955322 878.969543,848.924011 878.158813,849.890503 
z"/>
<path fill="#091B34" opacity="1.000000" stroke="none" 
	d="
M872.247498,168.048706 
	C871.349182,167.649353 870.609375,166.953415 869.734741,166.039368 
	C870.535278,166.464890 871.470581,167.108505 872.247498,168.048706 
z"/>
<path fill="#091B34" opacity="1.000000" stroke="none" 
	d="
M859.189453,868.872681 
	C859.530151,868.173889 860.228333,867.485168 861.197266,866.667603 
	C860.827698,867.320068 860.187317,868.101440 859.189453,868.872681 
z"/>
<path fill="#091B34" opacity="1.000000" stroke="none" 
	d="
M161.811493,160.075302 
	C161.479172,160.763687 160.788635,161.462204 159.838547,162.308655 
	C160.203751,161.666214 160.828506,160.875824 161.811493,160.075302 
z"/>
<path fill="#091B34" opacity="1.000000" stroke="none" 
	d="
M179.005386,148.377792 
	C178.467545,149.022568 177.592117,149.545334 176.409058,150.120163 
	C176.956879,149.533417 177.812347,148.894608 179.005386,148.377792 
z"/>
<path fill="#091B34" opacity="1.000000" stroke="none" 
	d="
M875.903442,852.554993 
	C876.144775,851.708618 876.734375,850.899841 877.603210,849.973328 
	C877.338928,850.767944 876.795288,851.680237 875.903442,852.554993 
z"/>
<path fill="#091B34" opacity="1.000000" stroke="none" 
	d="
M861.934570,866.559265 
	C862.153748,865.941956 862.720154,865.446289 863.560669,864.872925 
	C863.317078,865.423828 862.799438,866.052368 861.934570,866.559265 
z"/>
<path fill="#091B34" opacity="1.000000" stroke="none" 
	d="
M856.931152,870.502930 
	C857.172791,869.898987 857.751587,869.436768 858.600464,868.900391 
	C858.336426,869.432312 857.802429,870.038452 856.931152,870.502930 
z"/>
<path fill="#091B34" opacity="1.000000" stroke="none" 
	d="
M878.878601,175.806824 
	C878.182861,175.429092 877.495972,174.697678 876.700073,173.678665 
	C877.356567,174.078430 878.122009,174.765793 878.878601,175.806824 
z"/>
<path fill="#091B34" opacity="1.000000" stroke="none" 
	d="
M869.305908,165.094727 
	C868.734985,165.018677 868.296021,164.644547 867.747437,164.080261 
	C868.237854,164.192291 868.837769,164.494461 869.305908,165.094727 
z"/>
<path fill="#060A12" opacity="1.000000" stroke="none" 
	d="
M161.075256,864.253784 
	C161.673477,864.393005 162.296844,864.874207 163.038467,865.632446 
	C162.471283,865.471497 161.785843,865.033569 161.075256,864.253784 
z"/>
<path fill="#091B34" opacity="1.000000" stroke="none" 
	d="
M855.162598,871.864746 
	C855.193787,871.494019 855.552612,871.124573 856.153564,870.637695 
	C856.093811,870.968811 855.791992,871.417419 855.162598,871.864746 
z"/>
<path fill="#091B34" opacity="1.000000" stroke="none" 
	d="
M842.729126,145.947815 
	C842.264465,146.081573 841.675232,145.911362 840.931580,145.473495 
	C841.386292,145.351837 841.995361,145.497833 842.729126,145.947815 
z"/>
<path fill="#091B34" opacity="1.000000" stroke="none" 
	d="
M865.161621,863.871094 
	C865.130737,863.526184 865.408936,863.178589 865.891907,862.720154 
	C865.888062,863.029053 865.679382,863.448730 865.161621,863.871094 
z"/>
<path fill="#091B34" opacity="1.000000" stroke="none" 
	d="
M860.248230,157.114075 
	C859.742615,157.160767 859.334839,156.914673 858.845215,156.444336 
	C859.290894,156.420471 859.818542,156.620880 860.248230,157.114075 
z"/>
<path fill="#091B34" opacity="1.000000" stroke="none" 
	d="
M871.908691,857.194946 
	C871.902466,856.705872 872.166565,856.339355 872.649048,855.906372 
	C872.638000,856.332458 872.408569,856.825012 871.908691,857.194946 
z"/>
<path fill="#091B34" opacity="1.000000" stroke="none" 
	d="
M867.228027,163.100281 
	C866.743591,163.098541 866.375549,162.822311 865.937988,162.323975 
	C866.360535,162.343155 866.852478,162.584457 867.228027,163.100281 
z"/>
<path fill="#091B34" opacity="1.000000" stroke="none" 
	d="
M873.906860,169.878357 
	C873.558716,169.906158 873.195557,169.619080 872.717590,169.121231 
	C873.032471,169.128128 873.462158,169.345810 873.906860,169.878357 
z"/>
<path fill="#091B34" opacity="1.000000" stroke="none" 
	d="
M168.047165,155.336960 
	C168.090714,155.570465 167.858078,155.814224 167.368073,156.118896 
	C167.330780,155.902267 167.550888,155.624741 168.047165,155.336960 
z"/>
<path fill="#091B34" opacity="1.000000" stroke="none" 
	d="
M858.719482,155.999191 
	C858.477600,156.240952 858.177368,156.135345 857.762634,155.752045 
	C857.955933,155.618179 858.293640,155.677353 858.719482,155.999191 
z"/>
<path fill="#091B34" opacity="1.000000" stroke="none" 
	d="
M865.812622,161.889435 
	C865.605713,161.964890 865.293762,161.783493 864.876099,161.346207 
	C865.082886,161.271057 865.395203,161.451828 865.812622,161.889435 
z"/>
<path fill="#091B34" opacity="1.000000" stroke="none" 
	d="
M876.589111,173.088776 
	C876.338989,173.140182 876.085205,172.894272 875.745361,172.388977 
	C875.968079,172.350189 876.276733,172.570816 876.589111,173.088776 
z"/>
<path fill="#091B34" opacity="1.000000" stroke="none" 
	d="
M148.896515,173.186188 
	C148.979492,173.397293 148.811340,173.705276 148.390274,174.105499 
	C148.306702,173.892822 148.476059,173.587936 148.896515,173.186188 
z"/>
<path fill="#091B34" opacity="1.000000" stroke="none" 
	d="
M869.019043,860.147888 
	C868.961975,860.005188 869.041382,859.998901 869.023132,859.974609 
	C869.004883,859.950317 869.285095,860.072510 869.285095,860.072510 
	C869.285095,860.072510 869.076111,860.290588 869.019043,860.147888 
z"/>
<path fill="#060A12" opacity="1.000000" stroke="none" 
	d="
M151.919754,855.087524 
	C152.077026,854.983276 152.236237,855.027405 152.272049,855.101746 
	C152.126068,855.181335 151.944275,855.186523 151.919754,855.087524 
z"/>
<path fill="#091B34" opacity="1.000000" stroke="none" 
	d="
M864.048645,864.777161 
	C863.985413,864.562927 864.183472,864.280762 864.637085,863.918091 
	C864.698425,864.128174 864.504211,864.418701 864.048645,864.777161 
z"/>
<path fill="#091B34" opacity="1.000000" stroke="none" 
	d="
M871.018127,858.148743 
	C870.957031,858.009399 871.044983,857.994385 871.030029,857.966675 
	C871.015137,857.939026 871.286804,858.072449 871.286804,858.072449 
	C871.286804,858.072449 871.079224,858.288086 871.018127,858.148743 
z"/>
<path fill="#091B34" opacity="1.000000" stroke="none" 
	d="
M870.001709,859.161011 
	C869.939575,859.021729 870.032776,859.017273 870.014893,858.992310 
	C869.997070,858.967407 870.274231,859.087769 870.274231,859.087769 
	C870.274231,859.087769 870.063782,859.300354 870.001709,859.161011 
z"/>
<path fill="#091B34" opacity="1.000000" stroke="none" 
	d="
M867.020447,862.146729 
	C866.963196,862.004211 867.041565,861.996460 867.023560,861.971924 
	C867.005615,861.947327 867.285645,862.070190 867.285645,862.070190 
	C867.285645,862.070190 867.077698,862.289307 867.020447,862.146729 
z"/>
<path fill="#091B34" opacity="1.000000" stroke="none" 
	d="
M868.019775,861.147705 
	C867.962646,861.005005 868.041565,860.998413 868.023376,860.974060 
	C868.005188,860.949707 868.285461,861.071838 868.285461,861.071838 
	C868.285461,861.071838 868.076904,861.290405 868.019775,861.147705 
z"/>
<path fill="#001735" opacity="1.000000" stroke="none" 
	d="
M432.140198,403.994720 
	C432.140198,403.994720 431.976898,403.604553 431.725220,403.048279 
	C429.506683,402.325073 427.539825,402.013245 425.572876,402.012268 
	C369.920959,401.985229 314.268951,401.947784 258.617310,402.073029 
	C254.447205,402.082428 252.864471,401.319733 252.886765,396.668243 
	C253.080795,356.179932 252.995255,315.690247 253.011383,275.200989 
	C253.012009,273.604706 253.199387,272.008514 253.311417,270.226990 
	C255.280014,270.136627 256.754211,270.009766 258.228394,270.009705 
	C428.016754,270.002045 597.805115,270.022095 767.593384,269.905243 
	C772.089355,269.902161 773.124939,271.199463 773.108215,275.532715 
	C772.945374,317.687592 773.005737,359.843292 772.533508,402.002747 
	C714.404968,402.005188 656.745422,401.996246 599.085815,402.034393 
	C597.173157,402.035675 595.260742,402.514801 593.003784,403.049622 
	C592.440430,405.279388 592.034241,407.230316 592.030884,409.182007 
	C591.987671,433.909454 592.002502,458.637024 592.002502,483.364563 
	C592.002502,529.993408 591.991333,576.622192 592.042297,623.250977 
	C592.044373,625.153381 592.630737,627.055115 592.962524,629.428162 
	C592.980042,671.455017 592.980042,713.010864 592.980042,754.672913 
	C539.324219,754.672913 486.456909,754.672913 432.992676,754.672913 
	C432.992676,752.231628 432.992706,750.109985 432.992706,747.988342 
	C432.992523,635.408264 432.996887,522.828186 432.956604,410.248108 
	C432.955872,408.163544 432.424133,406.079193 432.140198,403.994720 
z"/>
<path fill="#060A12" opacity="1.000000" stroke="none" 
	d="
M773.002441,401.998779 
	C773.005737,359.843292 772.945374,317.687592 773.108215,275.532715 
	C773.124939,271.199463 772.089355,269.902161 767.593384,269.905243 
	C597.805115,270.022095 428.016754,270.002045 258.228394,270.009705 
	C256.754211,270.009766 255.280014,270.136627 253.311417,270.226990 
	C253.199387,272.008514 253.012009,273.604706 253.011383,275.200989 
	C252.995255,315.690247 253.080795,356.179932 252.886765,396.668243 
	C252.864471,401.319733 254.447205,402.082428 258.617310,402.073029 
	C314.268951,401.947784 369.920959,401.985229 425.572876,402.012268 
	C427.539825,402.013245 429.506683,402.325073 431.718964,402.836914 
	C400.473511,403.131958 368.982697,403.066498 337.491852,403.036957 
	C310.496429,403.011658 283.500916,403.027557 256.505463,403.025238 
	C254.869003,403.025085 253.232559,403.025177 251.380615,403.025177 
	C251.380615,358.290131 251.380615,313.886597 251.380615,269.221161 
	C425.785828,269.221161 600.158386,269.221161 774.967346,269.221161 
	C774.967346,313.211975 774.967346,357.147888 774.589722,401.546661 
	C773.808838,402.005951 773.405640,402.002380 773.002441,401.998779 
z"/>
<path fill="#000007" opacity="1.000000" stroke="none" 
	d="
M432.071136,404.460480 
	C432.424133,406.079193 432.955872,408.163544 432.956604,410.248108 
	C432.996887,522.828186 432.992523,635.408264 432.992706,747.988342 
	C432.992706,750.109985 432.992676,752.231628 432.992676,754.672913 
	C486.456909,754.672913 539.324219,754.672913 592.980042,754.672913 
	C592.980042,713.010864 592.980042,671.455017 593.190674,629.438965 
	C593.401245,628.978699 593.856018,629.008789 593.856018,629.008789 
	C593.856018,671.140442 593.856018,713.272034 593.856018,755.719360 
	C540.175476,755.719360 486.445038,755.719360 432.002075,755.719360 
	C432.002075,638.965027 432.002075,521.945618 432.071136,404.460480 
z"/>
<path fill="#103756" opacity="1.000000" stroke="none" 
	d="
M230.438293,892.995239 
	C229.968002,893.005188 229.953888,892.594421 229.942932,892.389160 
	C231.591736,892.119690 233.251511,891.999451 234.911285,891.999329 
	C421.649323,891.987976 608.387390,891.985596 795.589722,892.075317 
	C793.959778,892.442261 791.865723,892.956421 789.771484,892.956787 
	C603.483887,892.991699 417.196228,892.987183 230.438293,892.995239 
z"/>
<path fill="#091B34" opacity="1.000000" stroke="none" 
	d="
M593.942200,628.546997 
	C593.856018,629.008789 593.401245,628.978699 593.173096,628.967896 
	C592.630737,627.055115 592.044373,625.153381 592.042297,623.250977 
	C591.991333,576.622192 592.002502,529.993408 592.002502,483.364563 
	C592.002502,458.637024 591.987671,433.909454 592.030884,409.182007 
	C592.034241,407.230316 592.440430,405.279388 593.147705,403.083435 
	C593.635925,402.838806 593.910217,402.968292 593.910278,402.968292 
	C593.882629,416.253937 593.821594,429.539642 593.833191,442.825256 
	C593.887207,504.578583 593.961365,566.331909 593.942200,628.546997 
z"/>
<path fill="#000007" opacity="1.000000" stroke="none" 
	d="
M594.384644,402.984314 
	C593.910217,402.968292 593.635925,402.838806 593.492065,402.804993 
	C595.260742,402.514801 597.173157,402.035675 599.085815,402.034393 
	C656.745422,401.996246 714.404968,402.005188 772.533508,402.002747 
	C773.405640,402.002380 773.808838,402.005951 774.514526,402.010681 
	C773.217163,402.344269 771.617554,402.966064 770.017456,402.967346 
	C711.631348,403.014130 653.245178,403.003265 594.384644,402.984314 
z"/>
</svg>