<svg version="1.1" id="Layer_1" xmlns="http://www.w3.org/2000/svg" xmlns:xlink="http://www.w3.org/1999/xlink" x="0px" y="0px"
	 width="100%" viewBox="0 0 3602 1168" enable-background="new 0 0 3602 1168" xml:space="preserve">

<path fill="#f3f5fb" opacity="1.000000" stroke="none" 
	d="
M1586.000244,11.683393 
	C2256.221191,11.683391 2925.442139,11.683391 3595.155029,11.683391 
	C3595.155029,394.431122 3595.155029,776.284180 3595.155029,1158.128906 
	C3587.862793,1160.096069 37.154057,1160.929443 16.328606,1158.915161 
	C16.328606,776.885132 16.328606,394.792389 16.328606,11.683396 
	C539.277039,11.683396 1062.138550,11.683396 1586.000244,11.683393 
M2071.000000,57.681797 
	C1402.080933,57.795475 733.161987,57.909096 64.242958,58.041126 
	C63.965126,58.041180 63.652637,58.279171 63.419022,58.479218 
	C63.170677,58.691864 62.997108,58.991837 62.888401,59.129864 
	C62.888401,411.070404 62.888401,762.886841 62.888401,1114.622925 
	C77.124649,1116.708252 3544.441406,1116.043701 3551.140137,1114.062500 
	C3551.140137,762.192688 3551.140137,410.351471 3551.140137,57.681786 
	C3058.083252,57.681786 2565.541504,57.681786 2071.000000,57.681797 
z"/>
<path fill="#FFFFFF" opacity="0" stroke="none" 
	d="
M2072.000000,57.681793 
	C2565.541504,57.681786 3058.083252,57.681786 3551.140137,57.681786 
	C3551.140137,410.351471 3551.140137,762.192688 3551.140137,1114.062500 
	C3544.441406,1116.043701 77.124649,1116.708252 62.888401,1114.622925 
	C62.888401,762.886841 62.888401,411.070404 62.888401,59.129864 
	C62.997108,58.991837 63.170677,58.691864 63.419022,58.479218 
	C63.652637,58.279171 63.965126,58.041180 64.242958,58.041126 
	C733.161987,57.909096 1402.080933,57.795475 2072.000000,57.681793 
M3051.726807,624.583984 
	C3062.739014,580.162354 3064.030762,535.472961 3052.620117,491.107788 
	C3031.086670,407.384796 2978.444336,350.295349 2899.125488,317.885681 
	C2840.099609,293.767761 2778.770264,290.765564 2716.613770,303.140137 
	C2667.195312,312.978577 2623.010742,334.179901 2586.368408,368.934174 
	C2518.215820,433.575623 2495.330078,513.877380 2511.351074,604.821777 
	C2525.984619,687.887390 2574.000732,747.756836 2649.318848,784.753723 
	C2719.601807,819.277222 2793.848877,823.800171 2868.381836,803.213623 
	C2960.639160,777.731506 3023.302979,719.249817 3051.726807,624.583984 
M1633.682373,307.760071 
	C1630.854980,307.247406 1628.028809,306.294952 1625.200195,306.288239 
	C1584.542847,306.191498 1543.885254,306.216919 1503.227661,306.236237 
	C1500.973022,306.237305 1498.718384,306.441406 1495.506592,306.597534 
	C1495.506592,310.706665 1495.506592,314.278015 1495.506592,317.849365 
	C1495.506348,405.829620 1495.600586,493.810028 1495.440674,581.789978 
	C1495.399902,604.215637 1492.696655,626.329529 1483.906006,647.261230 
	C1473.078491,673.042908 1454.160034,689.432373 1426.666382,695.191650 
	C1418.892944,696.819885 1410.831177,697.619263 1402.882080,697.769653 
	C1354.102905,698.692932 1322.865234,674.053284 1311.896851,626.580627 
	C1307.970459,609.586731 1306.805176,592.328186 1306.781372,575.002441 
	C1306.663452,489.355164 1306.732910,403.707642 1306.710449,318.060211 
	C1306.709473,314.239563 1306.456665,310.419006 1306.332764,306.924377 
	C1258.912720,306.924377 1212.777588,306.924377 1166.104736,306.924377 
	C1166.104736,311.254730 1166.104858,314.885468 1166.104858,318.516205 
	C1166.104858,406.829712 1166.165039,495.143280 1166.061157,583.456665 
	C1166.035889,604.853088 1167.723755,626.066223 1172.085449,646.991882 
	C1188.618896,726.313904 1234.589355,779.782715 1312.829590,802.759705 
	C1370.317017,819.642212 1428.733032,819.120056 1486.429932,803.198364 
	C1536.225586,789.457092 1575.741943,760.847473 1602.448242,715.945557 
	C1623.752563,680.126343 1633.246338,640.662781 1633.623413,599.562073 
	C1634.510254,502.926117 1633.973755,406.277130 1633.682373,307.760071 
M2272.374268,443.362305 
	C2291.781738,425.776886 2311.189453,408.191467 2330.353516,390.826630 
	C2329.530518,389.166473 2329.320312,388.521362 2328.934082,388.009491 
	C2328.132080,386.946808 2327.237305,385.954254 2326.379395,384.933777 
	C2302.348877,356.350739 2273.049072,334.699127 2238.740723,320.249023 
	C2174.569336,293.221375 2108.260986,289.626282 2040.931274,305.251160 
	C1985.852417,318.033020 1938.522461,345.039093 1902.081909,388.715302 
	C1844.107422,458.200867 1830.077881,538.443359 1851.557251,624.397278 
	C1872.121948,706.691040 1925.358887,762.495361 2003.559326,793.871765 
	C2063.764893,818.028015 2126.152344,820.059448 2189.147949,806.684753 
	C2233.338623,797.302551 2272.749268,777.932434 2306.052490,747.062683 
	C2314.749512,739.000977 2322.589844,730.015015 2331.321289,720.935913 
	C2300.722412,693.252625 2271.136475,666.485596 2241.376709,639.561646 
	C2239.058594,642.041321 2237.219727,643.953796 2235.439941,645.919983 
	C2199.304688,685.842651 2154.751221,703.695251 2101.061523,696.064636 
	C2051.299561,688.992249 2015.487427,662.817200 1996.085693,615.883972 
	C1984.320801,587.424377 1982.870850,557.666870 1987.232300,527.515625 
	C1990.733276,503.313782 1999.457642,481.044159 2015.074219,462.134491 
	C2049.583496,420.348022 2095.311035,408.402435 2147.017822,415.076965 
	C2178.483643,419.138672 2204.741699,434.475220 2227.337646,456.439178 
	C2232.084473,461.053040 2237.352539,465.130463 2242.927734,469.925995 
	C2251.570801,462.126190 2261.442871,453.217072 2272.374268,443.362305 
M532.227600,335.014832 
	C532.227600,362.536774 532.227600,390.058746 532.227600,418.052124 
	C550.596863,418.052124 567.570618,418.052124 584.544312,418.052124 
	C601.210205,418.052124 617.876221,418.025330 634.542053,418.059601 
	C651.366089,418.094177 668.199097,417.899170 685.955017,418.212372 
	C685.955017,547.739807 685.955017,675.853638 685.955017,803.725037 
	C733.104431,803.725037 779.267639,803.725037 826.372192,803.725037 
	C826.372192,674.983276 826.372192,546.852173 826.372192,417.790955 
	C877.460632,417.790955 927.608643,417.790955 977.656921,417.790955 
	C979.543457,396.990662 978.770996,313.625153 976.764771,306.756836 
	C828.862793,306.756836 681.005981,306.756836 533.383850,306.756836 
	C532.891785,307.871979 532.418396,308.450989 532.411194,309.035767 
	C532.312317,317.031494 532.277893,325.028015 532.227600,335.014832 
z"/>
<path fill="#f3f5fb" opacity="1.000000" stroke="none" 
	d="
M3051.506836,625.371765 
	C3023.302979,719.249817 2960.639160,777.731506 2868.381836,803.213623 
	C2793.848877,823.800171 2719.601807,819.277222 2649.318848,784.753723 
	C2574.000732,747.756836 2525.984619,687.887390 2511.351074,604.821777 
	C2495.330078,513.877380 2518.215820,433.575623 2586.368408,368.934174 
	C2623.010742,334.179901 2667.195312,312.978577 2716.613770,303.140137 
	C2778.770264,290.765564 2840.099609,293.767761 2899.125488,317.885681 
	C2978.444336,350.295349 3031.086670,407.384796 3052.620117,491.107788 
	C3064.030762,535.472961 3062.739014,580.162354 3051.506836,625.371765 
M2804.972900,696.148254 
	C2846.783691,689.539062 2878.183838,667.738098 2899.317139,631.177490 
	C2909.455078,613.638916 2914.936523,594.534790 2916.965332,574.456238 
	C2920.034912,544.080627 2916.547607,514.665588 2903.080566,486.922302 
	C2879.246582,437.821289 2831.481934,411.083984 2775.263184,413.476562 
	C2729.786621,415.411926 2677.645996,442.335480 2656.904541,503.969269 
	C2647.578125,531.683289 2646.555176,560.251282 2652.198242,588.751343 
	C2667.305176,665.050720 2733.223389,706.296692 2804.972900,696.148254 
z"/>
<path fill="#f3f5fb" opacity="1.000000" stroke="none" 
	d="
M1633.847900,308.696716 
	C1633.973755,406.277130 1634.510254,502.926117 1633.623413,599.562073 
	C1633.246338,640.662781 1623.752563,680.126343 1602.448242,715.945557 
	C1575.741943,760.847473 1536.225586,789.457092 1486.429932,803.198364 
	C1428.733032,819.120056 1370.317017,819.642212 1312.829590,802.759705 
	C1234.589355,779.782715 1188.618896,726.313904 1172.085449,646.991882 
	C1167.723755,626.066223 1166.035889,604.853088 1166.061157,583.456665 
	C1166.165039,495.143280 1166.104858,406.829712 1166.104858,318.516205 
	C1166.104858,314.885468 1166.104736,311.254730 1166.104736,306.924377 
	C1212.777588,306.924377 1258.912720,306.924377 1306.332764,306.924377 
	C1306.456665,310.419006 1306.709473,314.239563 1306.710449,318.060211 
	C1306.732910,403.707642 1306.663452,489.355164 1306.781372,575.002441 
	C1306.805176,592.328186 1307.970459,609.586731 1311.896851,626.580627 
	C1322.865234,674.053284 1354.102905,698.692932 1402.882080,697.769653 
	C1410.831177,697.619263 1418.892944,696.819885 1426.666382,695.191650 
	C1454.160034,689.432373 1473.078491,673.042908 1483.906006,647.261230 
	C1492.696655,626.329529 1495.399902,604.215637 1495.440674,581.789978 
	C1495.600586,493.810028 1495.506348,405.829620 1495.506592,317.849365 
	C1495.506592,314.278015 1495.506592,310.706665 1495.506592,306.597534 
	C1498.718384,306.441406 1500.973022,306.237305 1503.227661,306.236237 
	C1543.885254,306.216919 1584.542847,306.191498 1625.200195,306.288239 
	C1628.028809,306.294952 1630.854980,307.247406 1633.847900,308.696716 
z"/>
<path fill="#f3f5fb" opacity="1.000000" stroke="none" 
	d="
M2271.844727,443.835144 
	C2261.442871,453.217072 2251.570801,462.126190 2242.927734,469.925995 
	C2237.352539,465.130463 2232.084473,461.053040 2227.337646,456.439178 
	C2204.741699,434.475220 2178.483643,419.138672 2147.017822,415.076965 
	C2095.311035,408.402435 2049.583496,420.348022 2015.074219,462.134491 
	C1999.457642,481.044159 1990.733276,503.313782 1987.232300,527.515625 
	C1982.870850,557.666870 1984.320801,587.424377 1996.085693,615.883972 
	C2015.487427,662.817200 2051.299561,688.992249 2101.061523,696.064636 
	C2154.751221,703.695251 2199.304688,685.842651 2235.439941,645.919983 
	C2237.219727,643.953796 2239.058594,642.041321 2241.376709,639.561646 
	C2271.136475,666.485596 2300.722412,693.252625 2331.321289,720.935913 
	C2322.589844,730.015015 2314.749512,739.000977 2306.052490,747.062683 
	C2272.749268,777.932434 2233.338623,797.302551 2189.147949,806.684753 
	C2126.152344,820.059448 2063.764893,818.028015 2003.559326,793.871765 
	C1925.358887,762.495361 1872.121948,706.691040 1851.557251,624.397278 
	C1830.077881,538.443359 1844.107422,458.200867 1902.081909,388.715302 
	C1938.522461,345.039093 1985.852417,318.033020 2040.931274,305.251160 
	C2108.260986,289.626282 2174.569336,293.221375 2238.740723,320.249023 
	C2273.049072,334.699127 2302.348877,356.350739 2326.379395,384.933777 
	C2327.237305,385.954254 2328.132080,386.946808 2328.934082,388.009491 
	C2329.320312,388.521362 2329.530518,389.166473 2330.353516,390.826630 
	C2311.189453,408.191467 2291.781738,425.776886 2271.844727,443.835144 
z"/>
<path fill="#f3f5fb" opacity="1.000000" stroke="none" 
	d="
M532.227600,334.019592 
	C532.277893,325.028015 532.312317,317.031494 532.411194,309.035767 
	C532.418396,308.450989 532.891785,307.871979 533.383850,306.756836 
	C681.005981,306.756836 828.862793,306.756836 976.764771,306.756836 
	C978.770996,313.625153 979.543457,396.990662 977.656921,417.790955 
	C927.608643,417.790955 877.460632,417.790955 826.372192,417.790955 
	C826.372192,546.852173 826.372192,674.983276 826.372192,803.725037 
	C779.267639,803.725037 733.104431,803.725037 685.955017,803.725037 
	C685.955017,675.853638 685.955017,547.739807 685.955017,418.212372 
	C668.199097,417.899170 651.366089,418.094177 634.542053,418.059601 
	C617.876221,418.025330 601.210205,418.052124 584.544312,418.052124 
	C567.570618,418.052124 550.596863,418.052124 532.227600,418.052124 
	C532.227600,390.058746 532.227600,362.536774 532.227600,334.019592 
z"/>
<path fill="#FEFEFE" opacity="0" stroke="none" 
	d="
M2804.095215,696.220093 
	C2733.223389,706.296692 2667.305176,665.050720 2652.198242,588.751343 
	C2646.555176,560.251282 2647.578125,531.683289 2656.904541,503.969269 
	C2677.645996,442.335480 2729.786621,415.411926 2775.263184,413.476562 
	C2831.481934,411.083984 2879.246582,437.821289 2903.080566,486.922302 
	C2916.547607,514.665588 2920.034912,544.080627 2916.965332,574.456238 
	C2914.936523,594.534790 2909.455078,613.638916 2899.317139,631.177490 
	C2878.183838,667.738098 2846.783691,689.539062 2804.095215,696.220093 
z"/>
</svg>